<?xml version="1.0" encoding="UTF-8"?>
<svg width="92px" height="63px" viewBox="0 0 92 63" version="1.1" xmlns="http://www.w3.org/2000/svg" xmlns:xlink="http://www.w3.org/1999/xlink">
    <!-- Generator: sketchtool 48.2 (47327) - http://www.bohemiancoding.com/sketch -->
    <title>8205AB28-C92A-458C-96EF-F10F744C43D5</title>
    <desc>Created with sketchtool.</desc>
    <defs></defs>
    <g id="Home" stroke="none" stroke-width="1" fill="none" fill-rule="evenodd" transform="translate(-971.000000, -416.000000)">
        <g id="Group-3" transform="translate(171.000000, 150.000000)" fill="#AF0000" fill-rule="nonzero">
            <g id="Addtional-Services_Icon" transform="translate(843.500000, 293.500000) rotate(-40.000000) translate(-843.500000, -293.500000) translate(797.000000, 263.000000)">
                <path d="M20.8493408,52.2450892 C20.7533122,52.2450892 20.6572835,52.2288132 20.5645102,52.1946335 L14.6856038,50.062472 C14.3942627,49.9566777 14.1859293,49.6978887 14.1436117,49.3886438 L13.085669,41.431287 C13.0303305,41.3808313 12.9749918,41.328748 12.9196533,41.275037 L4.89231033,40.9364953 C4.5830655,40.9218468 4.30474517,40.7379277 4.17290933,40.4563522 L1.52316967,34.7922897 C1.39133367,34.5107142 1.427141,34.1786828 1.61594317,33.9329147 L6.49875567,27.5527063 C6.49387283,27.4729537 6.48899,27.398084 6.48573483,27.3248417 L1.05279217,21.4133833 C0.842831167,21.1855187 0.777727,20.8583703 0.883521333,20.5654015 L3.01568283,14.6848677 C3.12147717,14.3935265 3.38026617,14.1851932 3.689511,14.1428755 L11.646867,13.0865603 C11.6973227,13.0312218 11.749406,12.9758832 11.803117,12.9205447 L12.1416587,4.89320083 C12.1563068,4.58395633 12.3402262,4.30563617 12.6218017,4.17380017 L18.2858642,1.52406017 C18.5641845,1.39385183 18.8962157,1.4280315 19.1452392,1.61683367 L25.5254492,6.4996465 C25.6052018,6.49476367 25.6800715,6.48988083 25.7533138,6.48662567 L31.6647722,1.0536825 C31.8926368,0.842094 32.2214128,0.775362167 32.512754,0.884411667 L38.3932878,3.01657317 C38.684629,3.1223675 38.8929623,3.38115683 38.93528,3.69040167 L39.9915952,11.6461308 C40.0469337,11.6982142 40.1022723,11.7502975 40.1592383,11.8040085 L48.1849545,12.1425502 C48.4941993,12.1571987 48.7725197,12.3411178 48.9043555,12.6226933 L51.5540952,18.2867558 C51.6859312,18.5683313 51.6501238,18.9003627 51.4613217,19.1461308 L46.5785092,25.5263392 C46.583392,25.6060918 46.5882748,25.6809615 46.59153,25.7542038 L52.0244727,31.6656622 C52.2344337,31.8935268 52.2995378,32.2206752 52.1937435,32.513644 L50.061582,38.3941778 C49.9557877,38.685519 49.6969987,38.8938523 49.3877538,38.93617 L41.430397,39.9924852 C41.3799413,40.0478237 41.327858,40.1031623 41.274147,40.1585008 L40.9356053,48.1858447 C40.9209568,48.4950895 40.7370377,48.7734098 40.4554622,48.9052457 L34.7913997,51.5549853 C34.5114517,51.683566 34.1794205,51.6493863 33.9320247,51.4622118 L27.5518163,46.5793993 C27.4720637,46.5842822 27.397194,46.589165 27.3255793,46.5924202 L21.4124918,52.0253628 C21.2562418,52.1685918 21.0544188,52.2450892 20.8493408,52.2450892 Z M15.7305257,48.6692428 L20.6572835,50.4563522 L26.4238867,45.1585007 C26.5719987,45.0217818 26.7656835,44.9436568 26.9675065,44.9387742 C27.1986263,44.9338913 27.4313737,44.9176153 27.6641212,44.9029668 C27.8447852,44.8801803 28.15403,44.9420293 28.3167905,45.0657273 L34.5423765,49.8313523 L39.2917255,47.6096727 L39.6221292,39.7760138 C39.6318948,39.5758185 39.713275,39.3837612 39.8516213,39.2372768 C40.0648375,39.0126675 40.2308532,38.8385138 40.3887307,38.6578497 C40.5221942,38.5048548 40.7061135,38.4071987 40.9079363,38.3795293 L48.668353,37.3492558 L50.4554623,32.4208703 L45.1576108,26.6558963 C45.020892,26.5077843 44.942767,26.3140995 44.9378843,26.1122765 C44.9330015,25.8795292 44.9167255,25.6467817 44.902077,25.4140343 C44.8890562,25.2122113 44.9427672,24.9208703 45.0648375,24.761365 L49.8304625,18.535779 L47.6087828,13.78643 L39.775124,13.4560263 C39.5749287,13.4462607 39.3828713,13.3648805 39.236387,13.2265342 C38.993874,12.9954143 38.8311135,12.8391643 38.6602152,12.6910523 C38.5055928,12.5575888 38.4063088,12.3720418 38.3786397,12.170219 L37.3483662,4.40980233 L32.4199807,2.6226925 L26.6550063,7.920545 C26.5068943,8.05726383 26.3132095,8.13538883 26.1113865,8.1402715 C25.8786392,8.14515433 25.6458917,8.16143033 25.4131443,8.17607883 C25.2096938,8.19072733 24.9199803,8.13538867 24.760475,8.01331833 L18.5348875,3.247693 L13.7855385,5.46937317 L13.455135,13.303032 C13.4453693,13.5032273 13.3639892,13.6952847 13.2256428,13.841769 C13.0124267,14.0663783 12.846411,14.240532 12.6885335,14.4211962 C12.55507,14.574191 12.3711507,14.6718472 12.1693278,14.6995165 L4.408912,15.72979 L2.62180267,20.6581755 L7.91965417,26.4231495 C8.056373,26.5712615 8.134498,26.7649463 8.13938067,26.9667693 C8.1442635,27.1995167 8.1605395,27.4322642 8.175188,27.6650115 C8.18820883,27.8668345 8.13449783,28.1581755 8.0124275,28.3176808 L3.2468025,34.5432668 L5.46848217,39.2926158 L13.3021402,39.6230195 C13.5023355,39.6327852 13.6943928,39.7141653 13.8408772,39.8525117 C14.0654865,40.0657278 14.2396402,40.2317435 14.4203043,40.389621 C14.5732992,40.5230845 14.6709553,40.7070038 14.6986247,40.9088267 L15.7305257,48.6692428 Z" id="Shape"></path>
                <path d="M26.5443293,36.1904017 C25.4359308,36.1904017 24.3242772,35.9967168 23.2516845,35.6077193 C20.8298095,34.728813 18.8945882,32.961235 17.8024657,30.6272505 C16.7103433,28.2948937 16.5931558,25.674451 17.4704343,23.252576 C18.3493407,20.830701 20.1169187,18.8954797 22.4509032,17.8033572 C24.7865167,16.7112348 27.4053318,16.5956748 29.8255792,17.4713258 C32.2474542,18.3502322 34.1826755,20.1178102 35.274798,22.4517947 C36.3669203,24.7841515 36.4841078,27.4045942 35.6068293,29.8264692 C34.727923,32.2483442 32.960345,34.1835655 30.6263605,35.275688 C29.3259048,35.8844122 27.9375585,36.1904017 26.5443293,36.1904017 Z M26.5345637,18.5569382 C25.3805923,18.5569382 24.2331313,18.8092168 23.1572835,19.3137742 C21.226945,20.2170945 19.7637288,21.8170293 19.0378173,23.8206102 C18.3119058,25.824191 18.4079345,27.990532 19.3128825,29.9208707 C20.2162028,31.8512092 21.8161377,33.3144253 23.81972,34.0403368 C25.8249283,34.7695035 27.9896418,34.6718473 29.9199805,33.7652717 C31.850319,32.8619513 33.3135352,31.2620165 34.0394467,29.2584357 C34.7653582,27.2548548 34.6693295,25.0885138 33.7643815,23.1581752 C32.8610612,21.2278367 31.2611263,19.7646205 29.2575455,19.038709 C28.3705012,18.7164433 27.4509048,18.5569382 26.5345637,18.5569382 Z" id="Shape"></path>
                <path d="M77.2037325,60.5452253 L73.0110242,60.5452253 C72.7001518,60.5452253 72.415321,60.3726993 72.2720918,60.0960065 L69.8469617,55.4378033 L64.837196,57.0165793 C64.5360892,57.1093528 64.2170788,57.0312278 63.9973522,56.8115012 L61.0318573,53.847634 C60.8121308,53.6279075 60.7323782,53.3040142 60.8267792,53.0077902 L62.4071828,47.9980245 L57.7473522,45.5728943 C57.4706595,45.4296652 57.2981333,45.1448345 57.2981333,44.833962 L57.2981333,40.6412537 C57.2981333,40.3303813 57.4706593,40.0455505 57.7473522,39.9023213 L62.4071828,37.4755635 L60.8267792,32.4674255 C60.7323782,32.1712015 60.8121307,31.8473083 61.0318573,31.6275817 L63.9973522,28.6620868 C64.2154512,28.439105 64.5393443,28.3626077 64.837196,28.4570087 L69.8469617,30.0374123 L72.2720918,25.3775817 C72.415321,25.100889 72.7001517,24.9283628 73.0110242,24.9283628 L77.2037325,24.9283628 C77.5146048,24.9283628 77.7994357,25.1008888 77.9426648,25.3775817 L80.367795,30.0374123 L85.3775607,28.4570087 C85.672157,28.3626077 85.9976778,28.439105 86.2174045,28.6620868 L89.1812717,31.6275817 C89.4009982,31.8473082 89.4807508,32.1712015 89.3863498,32.4674255 L87.8075738,37.4771912 L92.465777,39.9023213 C92.7424697,40.0455505 92.9149958,40.3303812 92.9149958,40.6412537 L92.9149958,44.833962 C92.9149958,45.1448343 92.7424698,45.4296652 92.465777,45.5728943 L87.8075738,47.996397 L89.3863498,53.0077902 C89.4807508,53.3040142 89.4009983,53.6279073 89.1812717,53.847634 L86.2174045,56.8115012 C85.997678,57.0328553 85.6721572,57.1077252 85.3775607,57.0165793 L80.367795,55.4378033 L77.9426648,60.0960065 C77.7994355,60.3726993 77.5146048,60.5452253 77.2037325,60.5452253 Z M73.517209,58.8785587 L76.6975475,58.8785587 L79.047808,54.3652123 C79.1405815,54.1861758 79.2952038,54.0462018 79.484006,53.9729597 C79.6711805,53.8997175 79.82092,53.8411237 79.969032,53.7776472 C80.1513237,53.6978945 80.359657,53.688129 80.5500867,53.7483503 L85.3970918,55.275043 L87.6448132,53.0273217 L86.1181205,48.1803165 C86.0578992,47.9898868 86.0676648,47.783181 86.1474173,47.5992618 C86.2157767,47.4397567 86.2792533,47.2769962 86.3411022,47.1142358 C86.4143443,46.9254337 86.5543183,46.7691837 86.7349823,46.6764103 L91.2483287,44.3277775 L91.2483287,41.147439 L86.7349823,38.7971785 C86.5543183,38.704405 86.4143443,38.548155 86.3411022,38.359353 C86.2792532,38.1965925 86.2157767,38.0338322 86.1474173,37.874327 C86.0676647,37.6904077 86.0578992,37.483702 86.1181205,37.2932723 L87.6448132,32.4478947 L85.3970918,30.1985457 L80.5500867,31.726866 C80.3580293,31.788715 80.1480685,31.7773217 79.9625215,31.6943138 L79.6158418,31.5527123 C79.4286673,31.4794702 79.1405813,31.2874128 79.047808,31.1083763 L76.6975475,26.59503 L73.517209,26.59503 L71.1669485,31.1083763 C71.074175,31.2874128 70.9211803,31.4257592 70.7356333,31.4990013 C70.4963755,31.5917748 70.3743052,31.6406028 70.2554902,31.6926862 C70.0699433,31.7773217 69.8583547,31.7903425 69.6646698,31.7268658 L64.8176647,30.1985455 L62.5683157,32.4478945 L64.096636,37.2932722 C64.158485,37.486957 64.1470917,37.6952903 64.0640838,37.8808373 C63.9957245,38.038715 63.9338755,38.1982202 63.8720265,38.359353 C63.7987843,38.5481552 63.6588103,38.7044052 63.4781463,38.7971785 L58.9648,41.147439 L58.9648,44.3277775 L63.4781463,46.6764103 C63.6588103,46.7691838 63.7987843,46.9254338 63.8720265,47.1142358 C63.9338755,47.2753687 63.9957245,47.4348738 64.0640838,47.5927515 C64.1470917,47.7782983 64.1584848,47.9866317 64.096636,48.1803167 L62.5683157,53.0273218 L64.8176647,55.2750432 L69.6646698,53.7483505 C69.8550995,53.684874 70.0650605,53.6962672 70.2489797,53.779275 C70.4052297,53.8476343 70.5679902,53.9094833 70.7291228,53.9713323 C70.917925,54.0445745 71.074175,54.1845485 71.1669483,54.3652125 L73.517209,58.8785587 Z M92.0816622,44.8339623 L92.0979382,44.8339623 L92.0816622,44.8339623 Z" id="Shape"></path>
                <path d="M75.0396698,49.4098082 C71.3222218,49.4098082 68.2981333,46.3857197 68.2981333,42.6698993 C68.2981333,38.9524513 71.3222218,35.9283628 75.0396698,35.9283628 C78.7554902,35.9283628 81.7795787,38.9524513 81.7795787,42.6698993 C81.7795787,46.3857197 78.7554902,49.4098082 75.0396698,49.4098082 Z M75.0396698,37.5950297 C72.2418183,37.5950297 69.9648,39.8720478 69.9648,42.6698995 C69.9648,45.4677512 72.2418182,47.7431417 75.0396698,47.7431417 C77.8375215,47.7431417 80.112912,45.467751 80.112912,42.6698995 C80.112912,39.872048 77.8375213,37.5950297 75.0396698,37.5950297 Z" id="Shape"></path>
            </g>
        </g>
    </g>
</svg>