<?xml version="1.0" encoding="UTF-8"?>
<svg width="42px" height="40px" viewBox="0 0 42 40" version="1.1" xmlns="http://www.w3.org/2000/svg" xmlns:xlink="http://www.w3.org/1999/xlink">
    <!-- Generator: sketchtool 48.2 (47327) - http://www.bohemiancoding.com/sketch -->
    <title>E6328392-1F47-40DD-84F3-D36C358689F5</title>
    <desc>Created with sketchtool.</desc>
    <defs>
        <linearGradient x1="99.140087%" y1="112.708084%" x2="33.8589812%" y2="37.7549606%" id="linearGradient-1">
            <stop stop-color="#0052CC" offset="18%"></stop>
            <stop stop-color="#2684FF" offset="100%"></stop>
        </linearGradient>
        <linearGradient x1="7053.82653%" y1="-161634%" x2="6067.18134%" y2="-163895%" id="linearGradient-2">
            <stop stop-color="#0052CC" offset="18%"></stop>
            <stop stop-color="#2684FF" offset="100%"></stop>
        </linearGradient>
    </defs>
    <g id="Tool-Services" stroke="none" stroke-width="1" fill="none" fill-rule="evenodd" transform="translate(-360.000000, -662.000000)">
        <g id="Confluence" transform="translate(360.000000, 662.000000)" fill-rule="nonzero">
            <path d="M1.49447094,30.074717 C1.06824143,30.7697989 0.589552909,31.5763563 0.182995532,32.2189793 C-0.180904884,32.8339256 0.0144514252,33.6270139 0.622339794,34.0025858 L9.14692996,39.2484875 C9.4461606,39.4332376 9.80705306,39.4900721 10.1485823,39.406231 C10.4901116,39.3223899 10.7836605,39.1048982 10.9633234,38.8025858 C11.304307,38.232094 11.7436513,37.4911104 12.2223398,36.6976678 C15.599389,31.1238973 18.9961103,31.8058645 25.1207004,34.7304547 L33.5731595,38.7501268 C33.893284,38.902497 34.2614604,38.9187671 34.5937777,38.7952291 C34.9260949,38.6716911 35.1942378,38.418871 35.3370939,38.0943891 L39.3961103,28.9140612 C39.6828864,28.258392 39.3910868,27.4938769 38.7403726,27.1960284 C36.956766,26.3566842 33.409225,24.684553 30.2157824,23.1435694 C18.7272578,17.5632416 8.9633234,17.9238973 1.49447094,30.074717 Z" id="Shape" fill="url(#linearGradient-1)"></path>
            <path d="M40.0052938,9.39749743 C40.4315233,8.70241546 40.9102118,7.89585809 41.3167692,7.25323514 C41.6806696,6.63828879 41.4853133,5.84520049 40.8774249,5.46962858 L32.3528348,0.223726939 C32.0511625,0.0205411325 31.678658,-0.0482391617 31.3243176,0.0338186158 C30.9699772,0.115876393 30.6656277,0.341401841 30.4839823,0.656513825 C30.1429987,1.22700563 29.7036544,1.96798923 29.2249659,2.76143186 C25.8479167,8.33520235 22.4511954,7.65323514 16.3266053,4.72864497 L7.90037575,0.728644972 C7.58025119,0.576274804 7.21207482,0.560004669 6.87975756,0.683542685 C6.54744029,0.807080702 6.27929745,1.05990073 6.13644132,1.38438268 L2.07742493,10.5647105 C1.79064882,11.2203798 2.08244845,11.9848948 2.73316264,12.2827433 C4.51676919,13.1220876 8.06431018,14.7942187 11.2577528,16.3352023 C22.7725069,21.9089728 32.5364413,21.5352023 40.0052938,9.39749743 Z" id="Shape" fill="url(#linearGradient-2)"></path>
        </g>
    </g>
</svg>