<?xml version="1.0" encoding="UTF-8"?>
<svg width="65px" height="60px" viewBox="0 0 65 60" version="1.1" xmlns="http://www.w3.org/2000/svg" xmlns:xlink="http://www.w3.org/1999/xlink">
    <!-- Generator: sketchtool 48.2 (47327) - http://www.bohemiancoding.com/sketch -->
    <title>EF63A035-0C77-465D-A4F4-6057C24AC3D5</title>
    <desc>Created with sketchtool.</desc>
    <defs></defs>
    <g id="Home" stroke="none" stroke-width="1" fill="none" fill-rule="evenodd" transform="translate(-641.000000, -188.000000)">
        <g id="Group-3" transform="translate(171.000000, 150.000000)" fill="#AF0000" fill-rule="nonzero">
            <g id="Data-Services" transform="translate(470.000000, 38.000000)">
                <path d="M26.6666667,12.2222222 L17.7777778,12.2222222 C17.1111111,12.2222222 16.6666667,12.6666667 16.6666667,13.3333333 C16.6666667,14 17.1111111,14.4444444 17.7777778,14.4444444 L26.6666667,14.4444444 C27.3333333,14.4444444 27.7777778,14 27.7777778,13.3333333 C27.7777778,12.6666667 27.3333333,12.2222222 26.6666667,12.2222222 Z" id="Shape"></path>
                <path d="M37.7777778,7.77777778 L17.7777778,7.77777778 C17.1111111,7.77777778 16.6666667,8.22222222 16.6666667,8.88888889 C16.6666667,9.55555556 17.1111111,10 17.7777778,10 L37.7777778,10 C38.4444444,10 38.8888889,9.55555556 38.8888889,8.88888889 C38.8888889,8.22222222 38.4444444,7.77777778 37.7777778,7.77777778 Z" id="Shape"></path>
                <path d="M58.8888889,35 L61.4444444,21.2222222 C61.5555556,20.8888889 61.4444444,20.5555556 61.2222222,20.3333333 C61,20.1111111 60.6666667,19.8888889 60.3333333,19.8888889 L56.6666667,19.8888889 L56.6666667,14.3333333 C56.6666667,13.6666667 56.2222222,13.2222222 55.5555556,13.2222222 L46.6666667,13.2222222 L46.6666667,1.11111111 C46.6666667,0.444444444 46.2222222,0 45.5555556,0 L11.1111111,0 C10.4444444,0 10,0.444444444 10,1.11111111 L10,18.8888889 L1.11111111,18.8888889 C0.444444444,18.8888889 0,19.3333333 0,20 L0,56.6666667 C0,57.3333333 0.444444444,57.7777778 1.11111111,57.7777778 L37.7777778,57.7777778 C38.4444444,57.7777778 38.8888889,57.3333333 38.8888889,56.6666667 C38.8888889,56 38.4444444,55.5555556 37.7777778,55.5555556 L2.22222222,55.5555556 L2.22222222,21.1111111 L31.7777778,21.1111111 C32.1111111,21.1111111 32.3333333,21 32.5555556,20.7777778 L37.7777778,15.5555556 L54.4444444,15.5555556 L54.4444444,32.7777778 C53.2222222,32.4444444 51.8888889,32.2222222 50.5555556,32.2222222 C42.8888889,32.2222222 36.6666667,38.4444444 36.6666667,46.1111111 C36.6666667,53.7777778 42.8888889,60 50.5555556,60 C58.2222222,60 64.4444444,53.7777778 64.4444444,46.1111111 C64.4444444,41.5555556 62.2222222,37.5555556 58.8888889,35 Z M37.3333333,13.3333333 C37,13.3333333 36.7777778,13.4444444 36.5555556,13.6666667 L31.3333333,18.8888889 L12.2222222,18.8888889 L12.2222222,2.22222222 L44.4444444,2.22222222 L44.4444444,13.3333333 L37.3333333,13.3333333 Z M56.6666667,22.2222222 L59,22.2222222 L56.8888889,33.7777778 C56.7777778,33.7777778 56.7777778,33.6666667 56.6666667,33.6666667 L56.6666667,22.2222222 Z M50.5555556,57.7777778 C44.1111111,57.7777778 38.8888889,52.5555556 38.8888889,46.1111111 C38.8888889,39.6666667 44.1111111,34.4444444 50.5555556,34.4444444 C52.1111111,34.4444444 53.4444444,34.7777778 54.7777778,35.2222222 C55,35.3333333 55.1111111,35.4444444 55.4444444,35.4444444 C59.4444444,37.3333333 62.2222222,41.3333333 62.2222222,46 C62.2222222,52.5555556 57,57.7777778 50.5555556,57.7777778 Z" id="Shape"></path>
                <path d="M56.3333333,42 L48.8888889,50.5555556 L45,46.6666667 C44.5555556,46.2222222 43.8888889,46.2222222 43.4444444,46.6666667 C43,47.1111111 43,47.7777778 43.4444444,48.2222222 L48.2222222,53 C48.4444444,53.2222222 48.6666667,53.3333333 49,53.3333333 C49,53.3333333 49,53.3333333 49,53.3333333 C49.3333333,53.3333333 49.5555556,53.2222222 49.7777778,53 L58,43.5555556 C58.4444444,43.1111111 58.3333333,42.4444444 57.8888889,42 C57.4444444,41.5555556 56.6666667,41.5555556 56.3333333,42 Z" id="Shape"></path>
                <path d="M11.1111111,46.6666667 C10.4444444,46.6666667 10,47.1111111 10,47.7777778 C10,48.4444444 10.4444444,48.8888889 11.1111111,48.8888889 L25.5555556,48.8888889 C26.2222222,48.8888889 26.6666667,48.4444444 26.6666667,47.7777778 C26.6666667,47.1111111 26.2222222,46.6666667 25.5555556,46.6666667 L11.1111111,46.6666667 Z" id="Shape"></path>
            </g>
        </g>
    </g>
</svg>