<?xml version="1.0" encoding="UTF-8"?>
<svg width="60px" height="60px" viewBox="0 0 60 60" version="1.1" xmlns="http://www.w3.org/2000/svg" xmlns:xlink="http://www.w3.org/1999/xlink">
    <!-- Generator: sketchtool 48.2 (47327) - http://www.bohemiancoding.com/sketch -->
    <title>FE7187A2-AA2C-4BD6-B447-186911A66366</title>
    <desc>Created with sketchtool.</desc>
    <defs></defs>
    <g id="Home" stroke="none" stroke-width="1" fill="none" fill-rule="evenodd" transform="translate(-643.000000, -414.000000)">
        <g id="Group-3" transform="translate(171.000000, 150.000000)" fill="#AF0000" fill-rule="nonzero">
            <g id="Engage_Icon" transform="translate(472.000000, 264.000000)">
                <path d="M30,0 C13.46,0 0,13.46 0,30 C0,46.54 13.46,60 30,60 C46.54,60 60,46.54 60,30 C60,13.46 46.54,0 30,0 Z M58.04,29.04 L50.76,29.04 L50.76,30.98 L58.04,30.98 C57.86,36.38 56.14,41.4 53.3,45.62 L6.7,45.62 C3.86,41.4 2.14,36.38 1.96,30.98 L9.18,30.98 L9.18,29.04 L1.96,29.04 C2.2,22.04 5.02,15.68 9.48,10.9 L14.58,16 L15.94,14.64 L10.84,9.54 C15.64,5.06 21.98,2.24 28.98,1.98 L28.98,9.2 L30.92,9.2 L30.92,1.96 C37.94,2.18 44.32,5 49.12,9.48 L43.98,14.62 L45.34,16 L50.5,10.86 C54.98,15.66 57.8,22.02 58.04,29.04 Z M30,58.06 C21.16,58.06 13.26,53.96 8.12,47.54 L51.88,47.54 C46.74,53.96 38.84,58.06 30,58.06 Z" id="Shape"></path>
                <path d="M41.4,17.22 L33.06,25.56 C32.14,24.84 31,24.4 29.76,24.4 C26.82,24.4 24.42,26.8 24.42,29.74 C24.42,32.68 26.82,35.08 29.76,35.08 C32.7,35.08 35.1,32.68 35.1,29.74 C35.1,28.74 34.82,27.8 34.34,27 L42.78,18.56 L41.4,17.22 Z M29.74,33.16 C27.86,33.16 26.34,31.64 26.34,29.76 C26.34,27.88 27.86,26.36 29.74,26.36 C31.62,26.36 33.14,27.88 33.14,29.76 C33.16,31.62 31.62,33.16 29.74,33.16 Z" id="Shape"></path>
                <rect id="Rectangle-path" x="21.68" y="51.64" width="16.6" height="1.94"></rect>
            </g>
        </g>
    </g>
</svg>