<?xml version="1.0" encoding="UTF-8"?>
<svg width="39px" height="31px" viewBox="0 0 39 31" version="1.1" xmlns="http://www.w3.org/2000/svg" xmlns:xlink="http://www.w3.org/1999/xlink">
    <!-- Generator: sketchtool 48.2 (47327) - http://www.bohemiancoding.com/sketch -->
    <title>C2F2E63F-BEB7-4A89-ACCE-09A376BBA3F5</title>
    <desc>Created with sketchtool.</desc>
    <defs></defs>
    <g id="HEADER" stroke="none" stroke-width="1" fill="none" fill-rule="evenodd" transform="translate(-1204.000000, -15.000000)">
        <g id="FAQ" stroke="#666666" stroke-width="1.5">
            <g transform="translate(1204.000000, 15.000000)">
                <path d="M13.2094718,0.75 C6.32829552,0.75 0.75,6.32829552 0.75,13.2094718 L0.75,13.5664845 C0.75,20.2504881 6.16845547,25.6689435 12.852459,25.6689435 L13.7991281,25.6689435 L12.9673802,29.208493 C12.9492055,29.2858364 12.968876,29.3672139 13.0203707,29.4277168 C13.1098601,29.532861 13.2676418,29.5455518 13.372786,29.4560624 L17.8224034,25.6689435 L25.0856102,25.6689435 C31.9667864,25.6689435 37.545082,20.090648 37.545082,13.2094718 C37.545082,6.32829552 31.9667864,0.75 25.0856102,0.75 L13.2094718,0.75 Z" id="Rectangle"></path>
                <path d="M9.96721311,8.91803279 L28.592011,8.91803279" id="Path-2"></path>
                <path d="M9.96721311,13.6393443 L28.592011,13.6393443" id="Path-2-Copy"></path>
                <path d="M9.96721311,17.8360656 L28.592011,17.8360656" id="Path-2-Copy-2"></path>
            </g>
        </g>
    </g>
</svg>