<?xml version="1.0" encoding="UTF-8"?>
<svg width="60px" height="60px" viewBox="0 0 60 60" version="1.1" xmlns="http://www.w3.org/2000/svg" xmlns:xlink="http://www.w3.org/1999/xlink">
    <!-- Generator: sketchtool 48.2 (47327) - http://www.bohemiancoding.com/sketch -->
    <title>370129E8-2EDB-46B7-84D7-A3F2D7919D70</title>
    <desc>Created with sketchtool.</desc>
    <defs></defs>
    <g id="Home" stroke="none" stroke-width="1" fill="none" fill-rule="evenodd" transform="translate(-301.000000, -194.000000)">
        <g id="Group-3" transform="translate(171.000000, 150.000000)" fill="#AF0000">
            <path d="M172.830121,99.3663663 C174.006697,98.0444555 175.087094,96.5462188 176.055284,94.8940975 C177.775799,94.4420618 179.378763,93.9194956 180.835322,93.3328109 C180.593809,93.592491 180.352296,93.8521711 180.101165,94.1022335 C177.983115,96.2202828 175.528444,97.9995725 172.830121,99.3663663 Z M157.588074,102.320094 C156.701101,100.988566 155.886795,99.068215 155.184697,96.6541517 C156.774837,96.7631532 158.401311,96.8197913 160.048089,96.8197913 C161.674563,96.8197913 163.258291,96.7471236 164.818509,96.6434653 C164.114274,99.0607345 163.299968,100.986428 162.410857,102.320094 C161.615787,102.387419 160.813237,102.429096 160,102.429096 C159.186763,102.429096 158.383144,102.38635 157.588074,102.320094 Z M133.826809,85.1138817 C132.578634,82.1783208 131.812418,78.9894917 131.621131,75.646778 C131.841271,76.032558 132.050725,76.4407794 132.232394,76.8981584 C132.764578,78.238236 133.124711,79.9053183 133.247604,81.977416 C133.317066,83.1561287 133.520108,84.1659958 133.826809,85.1138817 Z M139.896698,53.8977665 C145.041143,48.7533217 152.148684,45.5709044 160,45.5709044 C165.865779,45.5709044 171.317992,47.3491255 175.844762,50.3947565 C175.843693,50.3947565 175.843693,50.3947565 175.842625,50.3947565 C175.865066,50.4097175 175.886439,50.4225412 175.90888,50.4364336 C175.909949,50.4375022 175.912086,50.4396395 175.914224,50.4407082 C175.857586,50.9322837 175.840487,51.4356143 175.898194,51.902611 C175.990097,52.641043 176.265807,53.3025327 176.845011,53.7545684 C177.074769,53.935169 177.289566,54.0858476 177.513981,54.2450753 C178.605065,55.0144979 180.021017,56.0136786 179.414028,57.4392477 C178.629644,59.2773127 178.755744,59.7079756 178.934207,60.3235137 C178.984433,60.4987711 179.043209,60.7007445 179.043209,61.0469846 C179.040003,62.1412745 178.841235,62.8551277 178.568732,63.281516 C178.465073,63.4439497 178.358209,63.5518826 178.259894,63.6127952 C178.193638,63.6534036 178.135931,63.6715705 178.088911,63.6715705 C178.071813,63.6715705 178.05792,63.6683646 178.049371,63.6640901 L178.05044,63.6619528 C177.001033,62.9908453 176.3342,63.0880918 175.933459,63.7153849 C175.417305,64.52221 176.100167,66.4008834 176.775549,68.2539095 C177.085456,69.1077548 177.395362,69.9562569 177.567414,70.6091974 C177.646493,70.9084173 178.328287,70.9458198 178.056852,71.0174189 C177.127133,71.2642753 176.943326,70.5963737 176.707156,69.7286361 C176.581057,69.2723257 176.446408,68.7807502 176.234816,68.2784882 C175.875753,67.4257115 175.485698,67.0025291 175.137321,66.6252983 C174.780394,66.2384498 174.487586,65.9232002 174.46835,64.8086061 C174.443772,63.5198233 174.32729,62.6285755 174.039825,62.0279984 C173.650839,61.2083497 173.045987,60.8834823 172.12268,60.9123357 C171.771097,60.9219535 171.562712,60.899512 171.4302,60.7637944 C171.184412,60.5137321 170.923663,59.9708617 170.520785,58.9855733 C170.098671,57.9596766 169.335661,57.5567983 168.417697,57.6209169 C167.783992,57.6657999 167.096855,57.9628825 166.436434,58.4416343 C165.830513,58.8829836 165.227799,59.4889039 164.705233,60.1974139 C163.182417,62.2566879 162.312542,65.2136216 163.873829,67.567841 C164.100381,67.9098066 164.198696,68.1994087 164.207245,68.43451 C164.212589,68.5819827 164.181598,68.7091511 164.126029,68.8128095 C164.071528,68.9121932 163.993517,68.99341 163.902682,69.0543227 C163.800093,69.1227158 163.688954,69.1601183 163.586364,69.1643928 C161.803868,69.2317173 161.082535,66.4115698 160.623019,64.6205251 L160.619813,64.6205251 C160.475546,64.0562818 160.352652,63.5764614 160.22014,63.2483881 C159.635593,61.8025149 158.930289,60.6280768 157.998433,59.6534749 C157.062302,58.675667 155.916717,57.9201368 154.454814,57.3174224 C152.752467,56.6142557 150.453817,55.9142949 148.652086,55.6556834 C146.941189,55.4109643 145.559434,55.5937021 145.12984,56.5202152 C144.341182,58.2161507 145.884302,59.2035764 147.383607,60.1632173 C147.988459,60.5511345 148.582624,60.9315713 148.855128,61.2788801 C149.205642,61.7255726 149.392655,62.1092153 149.438606,62.4255334 C149.470666,62.6446051 149.42792,62.827343 149.324262,62.9673352 C149.190681,63.1468671 148.956649,63.296477 148.639262,63.4065472 C148.009832,63.6245503 147.12179,63.6683646 146.06704,63.5005878 C144.670324,63.2783101 143.744879,61.6860328 142.956221,60.3299256 C141.921775,58.5527731 141.058312,57.0694974 139.34421,57.9436469 C137.199444,59.0357995 138.036191,60.5863997 138.959498,62.295159 C139.30467,62.9331386 139.665871,63.6031774 139.774873,64.1877249 L139.775941,64.1877249 L139.787696,64.2497061 L139.787696,64.2529121 C139.928757,65.006305 140.078367,65.8131301 140.304919,66.5504934 C140.810387,68.2036833 141.643928,69.3930823 143.324903,68.8790653 C143.569622,68.8042603 143.766252,68.7700638 143.906244,68.7764756 L143.895558,68.8277705 C143.812204,69.2573647 143.45314,69.9156485 142.735012,70.8325437 C142.419763,71.2343533 142.066042,71.6415061 141.714459,72.0433156 C139.596409,74.4798205 137.589499,76.7870196 140.341253,81.1834147 C141.668507,83.3025327 141.007017,84.1916432 140.421401,84.9770954 C139.669077,85.9869626 138.995832,86.8931714 140.091191,88.6371959 C140.816799,89.7923984 140.687493,90.3096213 140.571011,90.7744808 C140.408578,91.4231468 140.260036,92.0151747 140.811456,92.9566487 C140.428882,92.5601824 140.012111,92.0707441 139.569693,91.4808535 L139.188188,90.9721797 C136.536886,87.4403163 135.02262,85.4216507 134.812097,81.8844441 C134.679585,79.6435009 134.279913,77.8150536 133.687885,76.3210914 C133.136466,74.9350622 132.419407,73.8397036 131.596552,72.9719659 C131.861575,65.5310084 134.978805,58.8156592 139.896698,53.8977665 Z M185.585438,61.5984042 C184.525345,62.2438642 183.325259,62.8497845 181.988387,63.401204 C181.430556,63.6320308 180.843871,63.8500338 180.243294,64.061625 C180.211235,63.9162897 180.185588,63.7645424 180.15246,63.6192071 C180.423895,62.9929826 180.605564,62.151961 180.607701,61.0469846 C180.60877,60.4784669 180.517935,60.1632173 180.437787,59.8885762 C180.351227,59.5893563 180.290315,59.3799024 180.855626,58.0526485 C181.959534,55.4611905 179.959035,54.0495138 178.415916,52.9616357 C178.180814,52.7959962 177.957468,52.6378371 177.807858,52.521355 C177.604816,52.363196 177.501158,52.067182 177.457343,51.7123927 C177.450932,51.6675097 177.456275,51.6151462 177.453069,51.568126 C178.381719,52.2915969 179.269761,53.0663627 180.101165,53.8977665 C182.33249,56.1280234 184.191928,58.7290991 185.585438,61.5984042 Z M188.328643,76.2890322 C186.413636,77.649414 183.907669,78.8548427 180.948598,79.8550921 C181.186906,77.9550458 181.322623,76.0015673 181.322623,74 C181.322623,72.1597977 181.215759,70.350586 181.012717,68.5851886 C180.896235,67.5731842 180.741282,66.5836213 180.562818,65.6090193 C181.259573,65.3664375 181.940299,65.1163752 182.58469,64.8502832 C183.929042,64.2945891 185.149432,63.6876002 186.236241,63.0389342 C187.646849,66.4126385 188.428027,70.114416 188.428027,74 C188.428027,74.7715599 188.388487,75.5335019 188.328643,76.2890322 Z M153.994229,91.5492466 C153.577459,89.3083034 153.245111,86.8365333 152.998255,84.2066042 C155.255227,84.4010971 157.581662,84.5079614 159.955117,84.5079614 C162.368112,84.5079614 164.724468,84.4010971 167.001745,84.2023296 C166.754889,86.8333274 166.421473,89.3072347 166.005771,91.5503152 C165.776013,92.7845973 165.523813,93.9483489 165.251309,95.0372956 C163.557511,95.1623268 161.830585,95.2478182 160.048089,95.2478182 C158.241014,95.2478182 156.47348,95.1730132 154.74976,95.0426388 C154.476187,93.9526235 154.223987,92.7867346 153.994229,91.5492466 Z M150.756243,94.6258683 C148.717273,94.3437467 146.78303,93.9633099 144.965269,93.5080683 C143.67328,91.1859082 142.601432,88.5762833 141.811705,85.7326257 C142.40587,84.9258006 142.977594,84.0131799 142.640972,82.5427279 C144.995191,83.1187262 147.506501,83.5857229 150.146048,83.9127275 C150.56175,83.965091 150.986001,84.0046308 151.408115,84.0495138 C151.660314,86.8365333 152.011898,89.4568447 152.453247,91.8324369 C152.653083,92.9106971 152.876429,93.9280447 153.111531,94.904784 C152.313255,94.8235671 151.527803,94.7327325 150.756243,94.6258683 Z M146.107648,95.3942222 C147.524668,95.7030599 149.007944,95.9659459 150.541446,96.1786058 C151.516047,96.3132547 152.516297,96.420119 153.527233,96.5141595 C154.144908,98.7422791 154.855555,100.629502 155.639939,102.095679 C154.131016,101.863784 152.663769,101.507926 151.242475,101.04841 C149.332811,99.5961244 147.608022,97.669362 146.107648,95.3942222 Z M142.962633,95.801375 C143.426424,95.6474905 143.667937,95.302319 143.6658,94.7925765 C143.756634,94.8171553 143.842126,94.84494 143.934029,94.8695188 C144.044099,95.0586685 144.143483,95.2617105 144.256759,95.4465857 C145.133046,96.8732234 146.095893,98.1791045 147.134613,99.3481993 C145.001603,98.2635272 143.023546,96.919175 141.243187,95.3536138 C141.491112,95.5160474 141.718733,95.636804 141.914295,95.7137463 C142.313967,95.8719054 142.673031,95.8964842 142.962633,95.801375 Z M142.879279,92.9342072 C142.819435,92.9160403 142.755316,92.9000107 142.694404,92.8818438 C142.686923,92.872226 142.68158,92.8636768 142.6741,92.8540591 C141.929256,91.9916646 141.980551,91.6122965 142.078866,91.2126242 C142.333203,91.8003776 142.601432,92.3742386 142.879279,92.9342072 Z M140.362626,61.5951982 C140.355146,61.5802372 140.347665,61.5663449 140.340185,61.5535212 C139.817618,60.5842625 139.343141,59.7058384 140.055926,59.3424999 C140.287821,59.2249492 140.562462,59.4899726 140.876643,59.9420083 C140.697111,60.4848787 140.521854,61.0320237 140.362626,61.5951982 Z M164.769351,70.3612724 C165.065365,70.1646422 165.325045,69.8921384 165.506715,69.5544473 C165.672354,69.2466783 165.761052,68.8822712 165.763189,68.4804617 C166.28148,68.4409219 166.801909,68.4056567 167.313789,68.3554305 C167.404624,70.186015 167.466605,72.057208 167.466605,74 C167.466605,76.9954048 167.349054,79.8807395 167.137463,82.6132583 C164.822783,82.8216436 162.421544,82.937057 159.955117,82.937057 C157.530367,82.937057 155.157981,82.8259181 152.862537,82.6218074 C152.650946,79.8860827 152.532326,76.9986108 152.532326,74 C152.532326,72.0582766 152.595376,70.1849464 152.686211,68.3490186 C155.052185,68.5777081 157.500445,68.7048766 160,68.7048766 L160,68.7016706 L160.414633,68.700602 C161.096427,69.8921384 162.093471,70.7876607 163.641934,70.729954 C164.030919,70.7149931 164.427386,70.586756 164.769351,70.3612724 Z M166.617034,60.3609162 C166.863891,62.2224914 167.062658,64.1823816 167.203719,66.2277633 C167.217611,66.4105012 167.221886,66.6049941 167.232572,66.7888006 C166.606348,66.8497132 165.964094,66.8967335 165.319702,66.9426851 C165.273751,66.862537 165.234211,66.7834574 165.17971,66.7022406 C164.053361,65.0020304 164.771489,62.7418516 165.963025,61.1303388 C166.169273,60.8503544 166.390482,60.5938802 166.617034,60.3609162 Z M169.484202,66.5333951 C169.258718,66.5633171 169.022548,66.5846899 168.794928,66.611406 C168.78531,66.4511096 168.781035,66.2822641 168.76928,66.1230364 C168.603641,63.723934 168.35999,61.4455883 168.056496,59.3115093 C168.222135,59.2431162 168.380294,59.1960959 168.521355,59.1864781 C168.752182,59.1704485 168.950949,59.2869305 169.071706,59.5808072 C169.554732,60.7584512 169.895629,61.4391764 170.313468,61.8623589 C170.844584,62.4009547 171.368219,62.501407 172.168632,62.4768283 L172.170769,62.4768283 C172.400527,62.4704164 172.543725,62.5356036 172.622805,62.7023118 C172.805543,63.0870231 172.882485,63.7773662 172.902789,64.8331849 C172.911338,65.287358 172.951947,65.6528337 173.014997,65.96274 C171.869412,66.1786058 170.69818,66.375236 169.484202,66.5333951 Z M179.082749,70.2105938 C178.893599,69.4946034 178.571937,68.6097674 178.248139,67.7195882 C178.091048,67.2910626 177.938232,66.8668115 177.797172,66.4682079 C178.225697,66.3485199 178.647811,66.2266947 179.062444,66.0995262 C179.217397,66.9736758 179.349909,67.8617177 179.454636,68.7636519 C179.649129,70.4574502 179.75065,72.2068179 179.75065,74 C179.75065,76.1875111 179.596766,78.3205215 179.307163,80.3744523 C178.468279,80.623446 177.610159,80.8628219 176.7125,81.0786877 C174.241798,81.6739216 171.557368,82.1409183 168.72226,82.4572365 C168.924233,79.7631888 169.038578,76.9312863 169.038578,74 C169.038578,72.0112564 168.971254,70.0770135 168.875076,68.1780358 C169.144374,68.1470452 169.419015,68.1213978 169.686175,68.0861326 C171.086097,67.9044634 172.435792,67.6768425 173.742742,67.4192997 C173.819684,67.5090657 173.899833,67.5966943 173.983187,67.6864603 C174.247141,67.9728565 174.544224,68.2945179 174.793218,68.8854771 C174.965269,69.2936986 175.084957,69.7329106 175.197165,70.1400634 C175.666299,71.8563032 176.028568,73.1760767 178.456524,72.5327539 C179.332811,72.3019271 179.401204,71.4149539 179.082749,70.2105938 Z M159.715741,67.1286289 C157.335874,67.1200798 155.012646,67.0003918 152.774908,66.7823888 C152.801624,66.3656182 152.814448,65.9274748 152.845439,65.5181847 C153.031382,63.093435 153.296406,60.8054714 153.62341,58.675667 C153.699284,58.7066576 153.785844,58.7344423 153.860649,58.765433 C155.118441,59.2847932 156.091974,59.9217041 156.868878,60.7338724 C157.650055,61.5503152 158.25277,62.5633883 158.765718,63.8318669 C158.868308,64.0872725 158.977309,64.5093862 159.104478,65.006305 L159.101272,65.0073736 C159.264774,65.6485591 159.458198,66.3923343 159.715741,67.1286289 Z M150.991344,62.2043244 C150.906921,61.6208457 150.617319,60.9817975 150.088341,60.3096213 C149.654472,59.7549959 148.9481,59.3040288 148.231041,58.8445125 C147.299184,58.2471414 146.341681,57.6337406 146.553272,57.1763616 C146.627008,57.0160653 147.393225,57.0598796 148.430877,57.2084209 C149.55402,57.3697859 150.882342,57.7235066 152.120899,58.1327966 C151.763973,60.39725 151.476508,62.8294803 151.282015,65.4017027 C151.251024,65.7938945 151.239269,66.2095964 151.212553,66.6082 C150.790439,66.5569052 150.361914,66.5120222 149.94728,66.4553842 C146.881345,66.0268585 144.024864,65.3995654 141.454779,64.6151818 C141.419513,64.432444 141.382111,64.2497061 141.348983,64.0691055 C141.497524,63.4150964 141.662095,62.7610872 141.844833,62.1092153 C141.881167,61.9820468 141.924981,61.8602216 141.962384,61.7330531 C142.852563,63.2184661 143.950059,64.7487622 145.82232,65.0469134 C147.133545,65.2563673 148.285541,65.1847683 149.149004,64.8855484 C149.768817,64.6707513 150.259324,64.3373348 150.582054,63.8991914 C150.934706,63.4236455 151.085385,62.8519218 150.991344,62.2043244 Z M145.309372,67.9728565 C145.115948,67.6063121 144.797492,67.3712108 144.38179,67.2675525 C143.969294,67.1638941 143.451003,67.2045025 142.87073,67.3818972 C142.436861,67.5144089 142.132298,67.050618 141.893991,66.3773733 C144.298436,67.0591672 146.926228,67.6159299 149.732483,68.007053 C150.188794,68.0711716 150.660065,68.1213978 151.123856,68.1758986 C151.027678,70.0738076 150.960353,72.0059132 150.960353,74 C150.960353,76.9312863 151.073629,79.7621202 151.276672,82.4561678 C150.964628,82.4209026 150.646172,82.3931179 150.337335,82.3546468 C147.314145,81.9795533 144.4769,81.4302711 141.892922,80.739928 C141.820254,80.6127596 141.749724,80.4877284 141.667438,80.3541481 C139.532291,76.9451786 141.17052,75.0632993 142.899583,73.0745556 C143.255441,72.6652656 143.615574,72.2517009 143.968226,71.8018024 C144.851993,70.6765219 145.308303,69.7852741 145.437609,69.128059 C145.526306,68.6749546 145.47608,68.288106 145.309372,67.9728565 Z M136.813664,90.4389271 C136.618103,90.1653546 136.426816,89.8885762 136.241941,89.6085919 C136.43964,89.8864389 136.640544,90.1685605 136.857479,90.4624372 C136.842518,90.4549567 136.827557,90.4474762 136.813664,90.4389271 Z M173.163538,93.9697218 C171.192961,94.3790119 169.088804,94.6996046 166.885263,94.916539 C167.121433,93.9365939 167.34478,92.9160403 167.545684,91.8324369 C167.987034,89.4568447 168.338617,86.834396 168.591885,84.0463078 C171.599045,83.7203719 174.451252,83.2330709 177.074769,82.6004346 C177.739465,82.4412069 178.3892,82.2702241 179.023973,82.0928294 C178.508888,84.9161828 177.738396,87.5771026 176.742422,90.002921 C176.230542,91.2457521 175.659887,92.4244648 175.040074,93.5369216 C174.427742,93.6886688 173.805792,93.8361415 173.163538,93.9697218 Z M168.760731,101.047341 C167.338368,101.506857 165.870053,101.862715 164.360061,102.095679 C165.141239,100.63057 165.851886,98.7465536 166.469562,96.5205714 C168.929576,96.2972251 171.28807,95.9606027 173.483062,95.5042924 C173.623054,95.4743704 173.756634,95.4423111 173.894489,95.4113205 C172.396253,97.6821857 170.667189,99.5950557 168.760731,101.047341 Z M183.117943,90.5351049 C181.429487,91.4648239 179.396929,92.2876786 177.097211,92.9758843 C177.481922,92.2064617 177.852741,91.4199409 178.190432,90.5981548 C179.321056,87.8485377 180.168489,84.8114558 180.697467,81.5905674 C183.572116,80.6726036 186.07167,79.5665586 188.10316,78.3151783 C187.414954,82.8259181 185.66238,86.9829373 183.117943,90.5351049 Z M181.212553,52.7863784 C175.783849,47.3576746 168.284116,44 160,44 C151.715884,44 144.215082,47.3576746 138.786378,52.7863784 C133.357675,58.2161507 130,65.7158836 130,74 C130,82.2841164 133.357675,89.7838493 138.786378,95.2136216 C144.215082,100.642325 151.715884,104 160,104 C168.284116,104 175.783849,100.642325 181.212553,95.2136216 C186.641257,89.7838493 190,82.2841164 190,74 C190,65.7158836 186.641257,58.2161507 181.212553,52.7863784 Z" id="Fill-124" transform="translate(160.000000, 74.000000) scale(-1, 1) translate(-160.000000, -74.000000) "></path>
        </g>
    </g>
</svg>