<?xml version="1.0" encoding="UTF-8"?>
<svg width="46px" height="40px" viewBox="0 0 46 40" version="1.1" xmlns="http://www.w3.org/2000/svg" xmlns:xlink="http://www.w3.org/1999/xlink">
    <!-- Generator: sketchtool 48.2 (47327) - http://www.bohemiancoding.com/sketch -->
    <title>C999302E-96BE-4D4D-A4DF-7C14B68D1FF5</title>
    <desc>Created with sketchtool.</desc>
    <defs>
        <linearGradient x1="0.10835264%" y1="4.29326874%" x2="64.5239316%" y2="47.0692675%" id="linearGradient-1">
            <stop stop-color="#0052CC" offset="18%"></stop>
            <stop stop-color="#2684FF" offset="100%"></stop>
        </linearGradient>
    </defs>
    <g id="Tool-Services" stroke="none" stroke-width="1" fill="none" fill-rule="evenodd" transform="translate(-592.000000, -662.000000)">
        <g id="Fisheye" transform="translate(592.000000, 662.000000)" fill-rule="nonzero">
            <path d="M21.6634921,0.450793651 C14.5587302,0.450793651 8.96507937,5.53015873 8.96507937,11.8793651 C8.96507937,16.7301587 12.2920635,20.2603175 16.2285714,20.2603175 C18.0743203,20.3135165 19.8629996,19.6172997 21.1870912,18.3302875 C22.5111828,17.0432752 23.2579094,15.2750866 23.2571429,13.4285714 C23.25905,12.9860021 23.1970343,12.5454768 23.0730159,12.1206349 C26.3554945,13.8410966 29.2106512,16.2753563 31.4285714,19.2444444 C29.2380952,23.1492063 25.8095238,27.3015873 20.7111111,27.3015873 C16.7581108,27.2503079 13.4272486,24.3364761 12.8507937,20.4253968 C12.7615878,19.7942651 12.2183264,19.3270602 11.5809524,19.3333333 L1.9047619,19.3333333 C1.54961584,19.3321949 1.21022211,19.4798342 0.968931781,19.7404277 C0.72764145,20.0010213 0.606506979,20.3507525 0.634920635,20.7047619 C1.23629269,31.295241 10.0275197,39.5589944 20.6349206,39.5047619 C32.6984127,39.5047619 39.847619,30.831746 45.3015873,19.6253968 C45.4763708,19.2711814 45.4763708,18.8558027 45.3015873,18.5015873 C43.7333333,15.3650794 35.047619,0.450793651 21.6634921,0.450793651 Z" id="Shape" fill="#2684FF"></path>
            <path d="M45.4095238,19.2444444 L31.4412698,19.2444444 C29.2380952,23.1492063 25.8095238,27.3015873 20.7111111,27.3015873 C16.7581108,27.2503079 13.4272486,24.3364761 12.8507937,20.4253968 C12.7615878,19.7942651 12.2183264,19.3270602 11.5809524,19.3333333 L1.9047619,19.3333333 C1.54961584,19.3321949 1.21022211,19.4798342 0.968931781,19.7404277 C0.72764145,20.0010213 0.606506979,20.3507525 0.634920635,20.7047619 C1.23629269,31.295241 10.0275197,39.5589944 20.6349206,39.5047619 C32.6984127,39.5047619 39.847619,30.831746 45.3015873,19.6253968 C45.357264,19.5048376 45.3936855,19.3762912 45.4095238,19.2444444 Z" id="Shape" fill="url(#linearGradient-1)"></path>
        </g>
    </g>
</svg>