<?xml version="1.0" encoding="UTF-8"?>
<svg width="55px" height="35px" viewBox="0 0 55 35" version="1.1" xmlns="http://www.w3.org/2000/svg" xmlns:xlink="http://www.w3.org/1999/xlink">
    <!-- Generator: sketchtool 48.2 (47327) - http://www.bohemiancoding.com/sketch -->
    <title>1F210AE5-31F0-46E9-AF10-8B0A8277945C</title>
    <desc>Created with sketchtool.</desc>
    <defs></defs>
    <g id="Environment-Services" stroke="none" stroke-width="1" fill="none" fill-rule="evenodd" transform="translate(-358.000000, -442.000000)">
        <g id="Group-5" transform="translate(358.000000, 442.000000)" fill="#AF0000" fill-rule="nonzero">
            <path d="M36.8467273,0 C33.2468182,0 29.8995455,1.09963636 27.1211818,2.98009091 C24.3428182,1.09963636 20.9955455,0 17.3956364,0 C7.80372727,0 0,7.80372727 0,17.395 C0,26.9862727 7.80372727,34.79 17.395,34.79 C20.9949091,34.79 24.3421818,33.6903636 27.1205455,31.8099091 C29.8982727,33.6903636 33.2461818,34.79 36.8460909,34.79 C46.438,34.79 54.2410909,26.9862727 54.2410909,17.395 C54.2410909,7.80372727 46.438,0 36.8467273,0 Z M17.3956364,33.5172727 C8.50563636,33.5172727 1.27272727,26.285 1.27272727,17.395 C1.27272727,8.505 8.505,1.27272727 17.395,1.27272727 C20.5691818,1.27272727 23.5295455,2.19863636 26.0272727,3.78890909 C22.0245455,6.97836364 19.4517273,11.8904545 19.4517273,17.395 C19.4517273,22.8995455 22.0245455,27.8116364 26.0279091,31.0010909 C23.5295455,32.5913636 20.5698182,33.5172727 17.3956364,33.5172727 Z M27.1211818,4.54745455 C31.0042727,7.49445455 33.5179091,12.1558182 33.5179091,17.395 C33.5179091,22.6341818 31.0042727,27.2961818 27.1211818,30.2425455 C23.2374545,27.2955455 20.7244545,22.6341818 20.7244545,17.395 C20.7244545,12.1558182 23.2374545,7.49445455 27.1211818,4.54745455 Z M36.8467273,33.5172727 C33.6725455,33.5172727 30.7121818,32.5913636 28.2144545,31.0010909 C32.2178182,27.8116364 34.7906364,22.9001818 34.7906364,17.395 C34.7906364,11.8898182 32.2178182,6.97836364 28.2144545,3.78890909 C30.7121818,2.19863636 33.6725455,1.27272727 36.8467273,1.27272727 C45.7367273,1.27272727 52.969,8.505 52.969,17.395 C52.969,26.285 45.7367273,33.5172727 36.8467273,33.5172727 Z" id="Shape"></path>
        </g>
    </g>
</svg>