<?xml version="1.0" encoding="UTF-8"?>
<svg width="78px" height="75px" viewBox="0 0 78 75" version="1.1" xmlns="http://www.w3.org/2000/svg" xmlns:xlink="http://www.w3.org/1999/xlink">
    <!-- Generator: sketchtool 48.2 (47327) - http://www.bohemiancoding.com/sketch -->
    <title>C347B9D3-9EE6-4329-9FAF-59B6AC33F6DA</title>
    <desc>Created with sketchtool.</desc>
    <defs></defs>
    <g id="Home" stroke="none" stroke-width="1" fill="none" fill-rule="evenodd" transform="translate(-292.000000, -645.000000)">
        <g id="Group-3" transform="translate(171.000000, 150.000000)" fill="#AF0000" fill-rule="nonzero">
            <g id="Group-2" transform="translate(121.000000, 495.000000)">
                <g id="Group">
                    <path d="M38.8554217,0.327271084 C34.8737078,0.327271084 31.626506,3.57446386 31.626506,7.55618675 C31.626506,11.2292639 34.3977117,14.2781602 37.9518072,14.7286265 L37.9518072,24.7813373 C31.3956967,25.1429675 25.8874355,29.3844488 23.6634036,35.2576175 L14.3731175,32.1514428 C14.4267316,31.7975783 14.4578313,31.4185961 14.4578313,31.0501627 C14.4578313,27.0684217 11.2106295,23.821247 7.22891566,23.821247 C3.24720181,23.821247 0,27.0684217 0,31.0501627 C0,35.0318855 3.2472,38.2790783 7.22891566,38.2790783 C10.2016283,38.2790783 12.7566063,36.476513 13.8648343,33.9021958 L23.1268825,36.9801325 C22.798809,38.2665895 22.5903614,39.6023702 22.5903614,40.9899217 C22.5903614,45.9145021 24.8002979,50.3453648 28.2661898,53.3299066 L23.0986446,60.756488 C22.1256949,60.2677093 21.0391364,59.9658253 19.8795181,59.9658253 C15.8978042,59.9658253 12.6506024,63.2130542 12.6506024,67.194741 C12.6506024,71.1764277 15.8978042,74.4236566 19.8795181,74.4236566 C23.8612319,74.4236566 27.1084337,71.1764277 27.1084337,67.194741 C27.1084337,65.0118768 26.1331437,63.0721654 24.595256,61.7448163 L29.7063253,54.4594247 C32.3127108,56.2359994 35.4683991,57.2549819 38.8554217,57.2549819 C42.2424443,57.2549819 45.3981325,56.2359994 48.0045181,54.4594247 L53.1155873,61.7448163 C51.5776997,63.0721654 50.6024096,65.0118768 50.6024096,67.194741 C50.6024096,71.1764277 53.8496114,74.4236566 57.8313253,74.4236566 C61.8130392,74.4236566 65.060241,71.1764277 65.060241,67.194741 C65.060241,63.2130542 61.8130392,59.9658253 57.8313253,59.9658253 C56.6717069,59.9658253 55.5851485,60.2677093 54.6121988,60.756488 L49.4446536,53.3299066 C52.9105455,50.3453648 55.1204819,45.9145021 55.1204819,40.9899217 C55.1204819,39.6178735 54.8481904,38.311247 54.5274849,37.0366084 L63.846009,33.9021958 C64.954237,36.476513 67.5092151,38.2790783 70.4819277,38.2790783 C74.4636434,38.2790783 77.7108434,35.0318855 77.7108434,31.0501627 C77.7108434,27.0684217 74.4636416,23.821247 70.4819277,23.821247 C66.5002139,23.821247 63.253012,27.0684217 63.253012,31.0501627 C63.253012,31.4185961 63.2841117,31.7975783 63.3377259,32.1514428 L53.2285392,35.539997 C52.7648095,35.7006869 52.5140943,36.2021174 52.6637801,36.6695151 C53.0877343,38.0294548 53.313253,39.4874819 53.313253,40.9899217 C53.313253,48.9854639 46.850963,55.447753 38.8554217,55.447753 C30.8598804,55.447753 24.3975904,48.9854639 24.3975904,40.9899217 C24.3975904,32.9943705 30.8598777,26.5320904 38.8554217,26.5320904 C43.268728,26.5320904 47.2742729,28.503994 49.9246988,31.6149217 C50.1094914,31.9225479 50.4587969,32.0916853 50.8147242,32.0458813 C51.1706514,32.0000773 51.4657526,31.7480117 51.5666377,31.4036218 C51.6675229,31.0592319 51.5550743,30.6877792 51.2801205,30.4571657 C48.4762093,27.1660789 44.3581274,25.0036066 39.7590361,24.7530994 L39.7590361,14.7286265 C43.3131316,14.2781602 46.0843373,11.2292639 46.0843373,7.55618675 C46.0843373,3.57446386 42.8371355,0.327271084 38.8554217,0.327271084 Z M38.8554217,2.1345 C41.8604386,2.1345 44.2771084,4.55116265 44.2771084,7.55618675 C44.2771084,10.5612108 41.8604386,12.9778735 38.8554217,12.9778735 C35.8504048,12.9778735 33.4337349,10.5612108 33.4337349,7.55618675 C33.4337349,4.55116265 35.8504048,2.1345 38.8554217,2.1345 Z M7.22891566,25.6284759 C10.2339325,25.6284759 12.6506024,28.0451205 12.6506024,31.0501627 C12.6506024,34.0551867 10.2339307,36.4718494 7.22891566,36.4718494 C4.2239006,36.4718494 1.80722892,34.0551867 1.80722892,31.0501627 C1.80722892,28.0451205 4.2238988,25.6284759 7.22891566,25.6284759 Z M70.4819277,25.6284759 C73.4869446,25.6284759 75.9036145,28.0451205 75.9036145,31.0501627 C75.9036145,34.0551867 73.4869428,36.4718494 70.4819277,36.4718494 C67.4769127,36.4718494 65.060241,34.0551867 65.060241,31.0501627 C65.060241,28.0451205 67.4769108,25.6284759 70.4819277,25.6284759 Z M19.8795181,61.7730542 C22.8845349,61.7730542 25.3012048,64.1896807 25.3012048,67.194741 C25.3012048,70.1998012 22.8845349,72.6164277 19.8795181,72.6164277 C16.8745012,72.6164277 14.4578313,70.1998012 14.4578313,67.194741 C14.4578313,64.1896807 16.8745012,61.7730542 19.8795181,61.7730542 Z M57.8313253,61.7730542 C60.8363422,61.7730542 63.253012,64.1896807 63.253012,67.194741 C63.253012,70.1998012 60.8363422,72.6164277 57.8313253,72.6164277 C54.8263084,72.6164277 52.4096386,70.1998012 52.4096386,67.194741 C52.4096386,64.1896807 54.8263084,61.7730542 57.8313253,61.7730542 Z" id="Shape"></path>
                </g>
            </g>
        </g>
    </g>
</svg>