<?xml version="1.0" encoding="UTF-8"?>
<svg width="42px" height="36px" viewBox="0 0 42 36" version="1.1" xmlns="http://www.w3.org/2000/svg" xmlns:xlink="http://www.w3.org/1999/xlink">
    <!-- Generator: sketchtool 48.2 (47327) - http://www.bohemiancoding.com/sketch -->
    <title>9236D60F-2B02-466F-928D-73F1E46115D9</title>
    <desc>Created with sketchtool.</desc>
    <defs></defs>
    <g id="Environment-Services" stroke="none" stroke-width="1" fill="none" fill-rule="evenodd" transform="translate(-364.000000, -284.000000)">
        <g id="Group-6" transform="translate(364.000000, 284.000000)" fill="#AF0000" fill-rule="nonzero">
            <g id="Group">
                <path d="M31.1972093,30.4151351 C31.0034427,30.2498383 30.7146028,30.2609519 30.5342133,30.4406449 C30.3538238,30.620338 30.3426671,30.9080626 30.5086047,31.1010811 L34.8453488,35.4210811 C34.8873928,35.4383667 34.9207869,35.4716318 34.9381395,35.5135135 C35.1286229,35.7021358 35.4362608,35.7021358 35.6267442,35.5135135 C41.5421928,29.621287 43.3119508,20.7595924 40.1107625,13.0607258 C36.9095741,5.36185918 29.367878,0.34202708 21.0024419,0.34202708 C12.6370058,0.34202708 5.09530959,5.36185918 1.89412124,13.0607258 C-1.3070671,20.7595924 0.462690912,29.621287 6.37813953,35.5135135 C6.56862294,35.7021358 6.87626078,35.7021358 7.06674419,35.5135135 C7.08104759,35.4966389 7.09410502,35.4787542 7.10581395,35.46 C7.12464088,35.4483363 7.14259485,35.4353293 7.15953488,35.4210811 L11.4962791,31.1010811 C11.6622166,30.9080626 11.6510599,30.620338 11.4706704,30.4406449 C11.2902809,30.2609519 11.0014411,30.2498383 10.8076744,30.4151351 L6.73465116,34.4724324 C3.36132623,30.9502663 1.42833343,26.3012401 1.31372093,21.4345946 L7.07162791,21.4345946 C7.34134837,21.4345946 7.56,21.2167872 7.56,20.9481081 C7.56,20.679429 7.34134837,20.4616216 7.07162791,20.4616216 L1.31372093,20.4616216 C1.42580283,15.5939429 3.35710461,10.9430606 6.72976744,7.41891892 L10.8027907,11.4762162 C10.9965573,11.641513 11.2853972,11.6303995 11.4657867,11.4507064 C11.6461762,11.2710134 11.6573329,10.9832888 11.4913953,10.7902703 L7.41837209,6.73297297 C10.9561732,3.37333201 15.6250822,1.44948699 20.5116279,1.33783784 L20.5116279,7.06864865 C20.5116279,7.33732772 20.7302795,7.55513514 21,7.55513514 C21.2697205,7.55513514 21.4883721,7.33732772 21.4883721,7.06864865 L21.4883721,1.33783784 C26.3749178,1.44948699 31.0438268,3.37333201 34.5816279,6.73297297 L30.5086047,10.7902703 C30.3692349,10.9091626 30.3085274,11.0958414 30.3514416,11.2735552 C30.3943557,11.451269 30.5336486,11.5900241 30.7120512,11.6327725 C30.8904538,11.6755209 31.0778561,11.6150479 31.1972093,11.4762162 L35.2702326,7.41891892 C38.6428954,10.9430606 40.5741972,15.5939429 40.6862791,20.4616216 L34.9283721,20.4616216 C34.6586516,20.4616216 34.44,20.679429 34.44,20.9481081 C34.44,21.2167872 34.6586516,21.4345946 34.9283721,21.4345946 L40.6862791,21.4345946 C40.5729895,26.3005824 38.6417738,30.9495229 35.2702326,34.4724324 L31.1972093,30.4151351 Z" id="Shape"></path>
                <path d="M27.754186,14.4097297 C27.5637026,14.2211074 27.2560648,14.2211074 27.0655814,14.4097297 L22.8460465,18.612973 C21.1654764,17.6518739 19.0247032,18.1527129 17.9493428,19.7585686 C16.8739824,21.3644243 17.2320586,23.5257199 18.7683894,24.7022141 C20.3047202,25.8787084 22.4935226,25.6677662 23.7749527,24.219715 C25.0563829,22.7716638 24.9918931,20.5820743 23.6274419,19.2113514 L27.754186,15.0810811 C27.9340311,14.8931522 27.9340311,14.5976586 27.754186,14.4097297 Z M21,24.4848649 C19.5030515,24.4848649 18.2895349,23.2760337 18.2895349,21.7848649 C18.2895349,20.293696 19.5030515,19.0848649 21,19.0848649 C22.4969485,19.0848649 23.7104651,20.293696 23.7104651,21.7848649 C23.7104651,23.2760337 22.4969485,24.4848649 21,24.4848649 Z" id="Shape"></path>
            </g>
        </g>
    </g>
</svg>