<?xml version="1.0" encoding="UTF-8"?>
<svg width="42px" height="35px" viewBox="0 0 42 35" version="1.1" xmlns="http://www.w3.org/2000/svg" xmlns:xlink="http://www.w3.org/1999/xlink">
    <!-- Generator: sketchtool 48.2 (47327) - http://www.bohemiancoding.com/sketch -->
    <title>34D1F7EC-09EF-4B84-9184-301589B00BE2</title>
    <desc>Created with sketchtool.</desc>
    <defs></defs>
    <g id="Data-Services" stroke="none" stroke-width="1" fill="none" fill-rule="evenodd" transform="translate(-516.000000, -427.000000)">
        <g id="Group-3" transform="translate(516.000000, 427.000000)" fill="#AF0000" fill-rule="nonzero">
            <g id="Group">
                <path d="M39.375,0.125 L2.29166667,0.125 C1.04166667,0.125 0,1.16666667 0,2.41666667 L0,32.5833333 C0,33.875 1.04166667,34.875 2.29166667,34.875 L39.3333333,34.875 C40.625,34.875 41.625,33.8333333 41.625,32.5833333 L41.625,2.41666667 C41.6666667,1.16666667 40.625,0.125 39.375,0.125 Z M40.5833333,32.5833333 C40.5833333,33.25 40.0416667,33.8333333 39.3333333,33.8333333 L2.29166667,33.8333333 C1.625,33.8333333 1.04166667,33.2916667 1.04166667,32.5833333 L1.04166667,2.41666667 C1.04166667,1.75 1.58333333,1.16666667 2.29166667,1.16666667 L39.3333333,1.16666667 C40,1.16666667 40.5833333,1.70833333 40.5833333,2.41666667 L40.5833333,32.5833333 Z" id="Shape"></path>
                <path d="M6.45833333,6.41666667 C6.16666667,6.41666667 5.91666667,6.66666667 5.91666667,6.95833333 L5.91666667,27.4583333 C5.91666667,27.75 6.16666667,28 6.45833333,28 C6.75,28 7,27.75 7,27.4583333 L7,6.95833333 C6.95833333,6.66666667 6.75,6.41666667 6.45833333,6.41666667 Z" id="Shape"></path>
                <path d="M20.8333333,6.41666667 C20.5416667,6.41666667 20.2916667,6.66666667 20.2916667,6.95833333 L20.2916667,27.4583333 C20.2916667,27.75 20.5416667,28 20.8333333,28 C21.125,28 21.375,27.75 21.375,27.4583333 L21.375,6.95833333 C21.375,6.66666667 21.125,6.41666667 20.8333333,6.41666667 Z" id="Shape"></path>
                <path d="M34.875,6.41666667 C34.5833333,6.41666667 34.3333333,6.66666667 34.3333333,6.95833333 L34.3333333,27.4583333 C34.3333333,27.75 34.5833333,28 34.875,28 C35.1666667,28 35.4166667,27.75 35.4166667,27.4583333 L35.4166667,6.95833333 C35.4166667,6.66666667 35.1666667,6.41666667 34.875,6.41666667 Z" id="Shape"></path>
                <path d="M10.375,6.41666667 C10.0833333,6.41666667 9.83333333,6.66666667 9.83333333,6.95833333 L9.83333333,23.9583333 C9.83333333,24.25 10.0833333,24.5 10.375,24.5 C10.6666667,24.5 10.9166667,24.25 10.9166667,23.9583333 L10.9166667,6.95833333 C10.9166667,6.66666667 10.6666667,6.41666667 10.375,6.41666667 Z" id="Shape"></path>
                <path d="M15.9583333,6.41666667 C15.6666667,6.41666667 15.4166667,6.66666667 15.4166667,6.95833333 L15.4166667,23.9583333 C15.4166667,24.25 15.6666667,24.5 15.9583333,24.5 C16.25,24.5 16.5,24.25 16.5,23.9583333 L16.5,6.95833333 C16.5,6.66666667 16.25,6.41666667 15.9583333,6.41666667 Z" id="Shape"></path>
                <path d="M25.4166667,6.41666667 C25.125,6.41666667 24.875,6.66666667 24.875,6.95833333 L24.875,23.9583333 C24.875,24.25 25.125,24.5 25.4166667,24.5 C25.7083333,24.5 25.9583333,24.25 25.9583333,23.9583333 L25.9583333,6.95833333 C25.9583333,6.66666667 25.7083333,6.41666667 25.4166667,6.41666667 Z" id="Shape"></path>
                <path d="M29.4583333,6.41666667 C29.1666667,6.41666667 28.9166667,6.66666667 28.9166667,6.95833333 L28.9166667,23.9583333 C28.9166667,24.25 29.1666667,24.5 29.4583333,24.5 C29.75,24.5 30,24.25 30,23.9583333 L30,6.95833333 C30,6.66666667 29.75,6.41666667 29.4583333,6.41666667 Z" id="Shape"></path>
            </g>
        </g>
    </g>
</svg>