<?xml version="1.0" encoding="UTF-8"?>
<svg width="37px" height="40px" viewBox="0 0 37 40" version="1.1" xmlns="http://www.w3.org/2000/svg" xmlns:xlink="http://www.w3.org/1999/xlink">
    <!-- Generator: sketchtool 48.2 (47327) - http://www.bohemiancoding.com/sketch -->
    <title>DDC7FF34-D0A0-49A6-8F53-59C42C52BD84</title>
    <desc>Created with sketchtool.</desc>
    <defs></defs>
    <g id="Environment-Services" stroke="none" stroke-width="1" fill="none" fill-rule="evenodd" transform="translate(-603.000000, -284.000000)">
        <g id="Group-3" transform="translate(603.000000, 284.000000)" fill-rule="nonzero">
            <g id="Group">
                <g id="Shape">
                    <g fill="#AF0000">
                        <path d="M29.9574468,10.5957447 L20.4255319,10.5957447 C20.1276596,10.5957447 19.8723404,10.3404255 19.8723404,10.0425532 L19.8723404,0.553191489 C19.8723404,0.340425532 20,0.127659574 20.212766,0.0425531915 C20.4255319,-0.0425531915 20.6382979,-4.38183768e-16 20.8085106,0.170212766 L30.3404255,9.70212766 C30.5106383,9.87234043 30.5531915,10.0851064 30.4680851,10.2978723 C30.3829787,10.4680851 30.1702128,10.5957447 29.9574468,10.5957447 Z M20.9361702,9.53191489 L28.6808511,9.53191489 L20.9361702,1.82978723 L20.9361702,9.53191489 Z"></path>
                        <path d="M16.7234043,39.6595745 L0.723404255,39.6595745 C0.425531915,39.6595745 0.170212766,39.4042553 0.170212766,39.106383 L0.170212766,0.553191489 C0.212765957,0.255319149 0.468085106,0 0.723404255,0 L20.4255319,0 C20.5531915,0 20.6808511,0.0425531915 20.8085106,0.170212766 L30.3404255,9.70212766 C30.4255319,9.78723404 30.5106383,9.95744681 30.5106383,10.0851064 L30.5106383,22.7659574 C30.5106383,23.0638298 30.2553191,23.3191489 29.9574468,23.3191489 C29.6595745,23.3191489 29.4042553,23.0638298 29.4042553,22.7659574 L29.4042553,10.2978723 L20.212766,1.06382979 L1.27659574,1.06382979 L1.27659574,38.5957447 L16.7234043,38.5957447 C17.0212766,38.5957447 17.2765957,38.8510638 17.2765957,39.1489362 C17.2765957,39.4468085 17.0212766,39.6595745 16.7234043,39.6595745 Z"></path>
                    </g>
                    <path d="M7.23404255,6.21276596 L3.95744681,6.21276596 C3.65957447,6.21276596 3.40425532,5.95744681 3.40425532,5.65957447 C3.40425532,5.36170213 3.65957447,5.10638298 3.95744681,5.10638298 L7.23404255,5.10638298 C7.53191489,5.10638298 7.78723404,5.36170213 7.78723404,5.65957447 C7.78723404,5.95744681 7.53191489,6.21276596 7.23404255,6.21276596 Z" fill="#BE0000"></path>
                    <path d="M12.3829787,6.21276596 L9.10638298,6.21276596 C8.80851064,6.21276596 8.55319149,5.95744681 8.55319149,5.65957447 C8.55319149,5.36170213 8.80851064,5.10638298 9.10638298,5.10638298 L12.3829787,5.10638298 C12.6808511,5.10638298 12.9361702,5.36170213 12.9361702,5.65957447 C12.9361702,5.95744681 12.6808511,6.21276596 12.3829787,6.21276596 Z" fill="#BE0000"></path>
                    <path d="M14.4255319,11.3617021 L3.91489362,11.3617021 C3.61702128,11.3617021 3.36170213,11.106383 3.36170213,10.8085106 C3.36170213,10.5106383 3.61702128,10.2553191 3.91489362,10.2553191 L14.3829787,10.2553191 C14.6808511,10.2553191 14.9361702,10.5106383 14.9361702,10.8085106 C14.9361702,11.106383 14.7234043,11.3617021 14.4255319,11.3617021 Z" fill="#BE0000"></path>
                    <path d="M27.0638298,16.5957447 L3.95744681,16.5957447 C3.65957447,16.5957447 3.40425532,16.3404255 3.40425532,16.0425532 C3.40425532,15.7446809 3.65957447,15.4893617 3.95744681,15.4893617 L27.106383,15.4893617 C27.4042553,15.4893617 27.6595745,15.7446809 27.6595745,16.0425532 C27.6595745,16.3404255 27.3617021,16.5957447 27.0638298,16.5957447 Z" fill="#BE0000"></path>
                    <path d="M22.0851064,21.9574468 L3.95744681,21.9574468 C3.65957447,21.9574468 3.40425532,21.7021277 3.40425532,21.4042553 C3.40425532,21.106383 3.65957447,20.8510638 3.95744681,20.8510638 L22.1276596,20.8510638 C22.4255319,20.8510638 22.6808511,21.106383 22.6808511,21.4042553 C22.6808511,21.7021277 22.3829787,21.9574468 22.0851064,21.9574468 Z" fill="#BE0000"></path>
                </g>
                <g transform="translate(17.872340, 23.404255)" fill="#AF0000">
                    <path d="M16.212766,16.5957447 L2.46808511,16.5957447 C1.61702128,16.5957447 0.893617021,16.1702128 0.468085106,15.4468085 C0.0425531915,14.7234043 0.0425531915,13.8723404 0.468085106,13.1489362 L7.36170213,1.23404255 C7.78723404,0.510638298 8.5106383,0.085106383 9.36170213,0.085106383 C10.212766,0.085106383 10.9361702,0.510638298 11.3617021,1.23404255 L18.2553191,13.1489362 C18.6808511,13.8723404 18.6808511,14.7234043 18.2553191,15.4468085 C17.8297872,16.1702128 17.0212766,16.5957447 16.212766,16.5957447 Z M9.31914894,1.14893617 C8.85106383,1.14893617 8.46808511,1.36170213 8.25531915,1.78723404 L1.36170213,13.7021277 C1.14893617,14.0851064 1.14893617,14.5531915 1.36170213,14.9361702 C1.57446809,15.3191489 2,15.5744681 2.42553191,15.5744681 L16.1702128,15.5744681 C16.6382979,15.5744681 17.0212766,15.3617021 17.2340426,14.9361702 C17.4468085,14.5531915 17.4468085,14.0851064 17.2340426,13.7021277 L10.3404255,1.78723404 C10.1702128,1.36170213 9.78723404,1.14893617 9.31914894,1.14893617 Z" id="Shape"></path>
                    <path d="M9.31914894,10.4255319 C9.0212766,10.4255319 8.76595745,10.1702128 8.76595745,9.87234043 L8.76595745,5.4893617 C8.76595745,5.19148936 9.0212766,4.93617021 9.31914894,4.93617021 C9.61702128,4.93617021 9.87234043,5.19148936 9.87234043,5.4893617 L9.87234043,9.91489362 C9.87234043,10.212766 9.61702128,10.4255319 9.31914894,10.4255319 Z" id="Shape"></path>
                    <circle id="Oval" cx="9.31914894" cy="12.2978723" r="1.0212766"></circle>
                </g>
            </g>
        </g>
    </g>
</svg>