<?xml version="1.0" encoding="UTF-8"?>
<svg width="46px" height="46px" viewBox="0 0 46 46" version="1.1" xmlns="http://www.w3.org/2000/svg" xmlns:xlink="http://www.w3.org/1999/xlink">
    <!-- Generator: sketchtool 48.2 (47327) - http://www.bohemiancoding.com/sketch -->
    <title>01D49923-073F-4D39-8FF5-090F31D6ACFD</title>
    <desc>Created with sketchtool.</desc>
    <defs></defs>
    <g id="Environment-Services" stroke="none" stroke-width="1" fill="none" fill-rule="evenodd" transform="translate(-125.000000, -433.000000)">
        <g id="Group-4" transform="translate(126.000000, 434.000000)" fill="#AF0000" fill-rule="nonzero" stroke="#FFFFFF" stroke-width="0.5">
            <path d="M39.515625,26.296875 L44.015625,25.453125 L43.875,18.140625 L39.375,17.4375 C38.953125,15.75 38.25,14.203125 37.265625,12.796875 L39.796875,9 L34.59375,3.9375 L30.796875,6.609375 C29.390625,5.765625 27.703125,5.203125 26.015625,4.78125 L25.171875,0 L17.859375,0.140625 L17.15625,4.640625 C15.46875,5.0625 13.921875,5.765625 12.515625,6.75 L8.71875,4.21875 L3.65625,9.421875 L6.328125,13.21875 C5.484375,14.765625 4.921875,16.3125 4.5,18 L0,18.84375 L0.140625,26.15625 L4.640625,26.859375 C5.0625,28.546875 5.765625,30.09375 6.609375,31.5 L4.078125,35.296875 L9.28125,40.359375 L13.078125,37.6875 C14.625,38.53125 16.171875,39.234375 17.859375,39.515625 L18.703125,44.015625 L26.015625,43.875 L26.71875,39.375 C28.40625,38.953125 29.953125,38.25 31.359375,37.40625 L35.15625,39.9375 L40.21875,34.734375 L37.546875,30.9375 C38.53125,29.53125 39.234375,27.984375 39.515625,26.296875 Z M37.546875,34.59375 L34.875,37.265625 L31.359375,34.875 L30.796875,35.296875 C29.25,36.421875 27.421875,37.125 25.59375,37.546875 L24.890625,37.6875 L24.1875,41.90625 L20.390625,41.90625 L19.546875,37.828125 L18.84375,37.6875 C17.015625,37.265625 15.1875,36.5625 13.5,35.578125 L12.9375,35.15625 L9.421875,37.546875 L6.609375,34.875 L9,31.359375 L8.71875,30.9375 C7.59375,29.25 6.890625,27.5625 6.46875,25.734375 L6.328125,25.03125 L2.109375,24.328125 L2.109375,20.53125 L6.1875,19.6875 L6.328125,18.984375 C6.75,17.015625 7.453125,15.328125 8.4375,13.640625 L8.859375,13.078125 L6.46875,9.5625 L9.140625,6.890625 L12.65625,9.28125 L13.21875,8.859375 C14.765625,7.734375 16.59375,7.03125 18.421875,6.609375 L19.125,6.46875 L19.828125,2.25 L23.625,2.25 L24.46875,6.328125 L25.171875,6.46875 C27.140625,6.890625 28.828125,7.59375 30.515625,8.578125 L31.078125,9 L34.59375,6.46875 L37.265625,9.140625 L34.875,12.65625 L35.296875,13.21875 C36.421875,14.765625 37.125,16.59375 37.546875,18.421875 L37.6875,19.125 L41.90625,19.828125 L41.90625,23.625 L37.828125,24.46875 L37.6875,25.171875 C37.265625,27 36.5625,28.828125 35.578125,30.515625 L35.15625,31.078125 L37.546875,34.59375 Z" id="Shape"></path>
            <path d="M21.9407079,11.25 L21.6594579,11.25 C16.0344579,11.25 11.3938329,15.75 11.2532079,21.375 C11.1125829,27.140625 15.6125829,31.921875 21.3782079,32.0625 L21.6594579,32.0625 C27.2844579,32.0625 31.9250829,27.5625 32.0657079,21.9375 C32.2063329,16.3125 27.7063329,11.390625 21.9407079,11.25 Z M21.6594579,29.953125 L21.3782079,29.953125 C16.7375829,29.8125 13.2219579,26.015625 13.3625829,21.375 C13.5032079,16.875 17.1594579,13.359375 21.6594579,13.359375 L21.9407079,13.359375 C26.5813329,13.5 30.0969579,17.296875 29.9563329,21.9375 C29.8157079,26.4375 26.1594579,29.953125 21.6594579,29.953125 Z" id="Shape"></path>
        </g>
    </g>
</svg>