<?xml version="1.0" encoding="UTF-8"?>
<svg width="46px" height="36px" viewBox="0 0 46 36" version="1.1" xmlns="http://www.w3.org/2000/svg" xmlns:xlink="http://www.w3.org/1999/xlink">
    <!-- Generator: sketchtool 48.2 (47327) - http://www.bohemiancoding.com/sketch -->
    <title>526F736F-8A45-4077-B634-550D0E1426F2</title>
    <desc>Created with sketchtool.</desc>
    <defs></defs>
    <g id="Environment-Services" stroke="none" stroke-width="1" fill="none" fill-rule="evenodd" transform="translate(-123.000000, -291.000000)">
        <g id="Group-2" transform="translate(123.000000, 291.000000)" fill="#AF0000" fill-rule="nonzero">
            <path d="M43.8889399,36 C45.0548462,36 46,35.056614 46,33.8928885 L46,2.1071115 C46,0.943385953 45.0548462,0 43.8889399,0 L26.8262965,0 C25.6603902,0 24.7152363,0.943385953 24.7152363,2.1071115 L24.7152363,4.214223 L11.8747132,4.214223 C10.7088069,4.214223 9.76365305,5.15760896 9.76365305,6.3213345 L9.76365305,8.42844601 L2.11106012,8.42844601 C0.945153809,8.42844601 0,9.37183196 0,10.5355575 L0,25.4644425 C0,26.628168 0.945153809,27.571554 2.11106012,27.571554 L9.76365305,27.571554 L9.76365305,29.6786655 C9.76365305,30.842391 10.7088069,31.785777 11.8747132,31.785777 L24.7152363,31.785777 L24.7152363,33.8928885 C24.7152363,35.056614 25.6603902,36 26.8262965,36 L43.8889399,36 Z M2.10578247,26.5179982 C1.52282931,26.5179982 1.05025241,26.0463053 1.05025241,25.4644425 L1.05025241,10.5355575 C1.05025241,9.95369473 1.52282931,9.48200176 2.10578247,9.48200176 L9.7583754,9.48200176 L9.7583754,26.5179982 L2.10578247,26.5179982 Z M11.8694355,30.7322212 C11.2864824,30.7322212 10.8139055,30.2605283 10.8139055,29.6786655 L10.8139055,6.3213345 C10.8139055,5.73947173 11.2864824,5.26777875 11.8694355,5.26777875 L24.7152363,5.26777875 L24.7152363,30.7322212 L11.8694355,30.7322212 Z M25.7654888,33.8928885 L25.7654888,2.1071115 C25.7654888,1.52524873 26.2380657,1.05355575 26.8210188,1.05355575 L43.8889399,1.05355575 C44.471893,1.05355575 44.9444699,1.52524873 44.9444699,2.1071115 L44.9444699,33.8928885 C44.9444699,34.4747513 44.471893,34.9464442 43.8889399,34.9464442 L26.8262965,34.9464442 C26.2433433,34.9464442 25.7707664,34.4747513 25.7707664,33.8928885 L25.7654888,33.8928885 Z" id="Shape"></path>
        </g>
    </g>
</svg>