<?xml version="1.0" encoding="UTF-8"?>
<svg width="30px" height="30px" viewBox="0 0 30 30" version="1.1" xmlns="http://www.w3.org/2000/svg" xmlns:xlink="http://www.w3.org/1999/xlink">
    <!-- Generator: sketchtool 48.2 (47327) - http://www.bohemiancoding.com/sketch -->
    <title>837A2741-0483-41C7-A0A4-15F42E4E5E86</title>
    <desc>Created with sketchtool.</desc>
    <defs></defs>
    <g id="HEADER" stroke="none" stroke-width="1" fill="none" fill-rule="evenodd" transform="translate(-1275.000000, -14.000000)">
        <g id="HELP_ICON">
            <g transform="translate(1276.000000, 15.000000)">
                <path d="M14,0 C6.27555091,0 0,6.27555091 0,14 C0,21.7244364 6.27555091,28 14,28 C21.7244491,28 28,21.7244364 28,14 C28,6.27555091 21.7244491,0 14,0 Z" id="Shape" stroke="#666666" stroke-width="1.5" fill-rule="nonzero"></path>
                <path d="M14.0000639,6.36363636 C11.5474227,6.36363636 9.54551846,8.36554409 9.54551846,10.8181818 C9.54227282,11.0476774 9.66284819,11.2611427 9.86107391,11.3768376 C10.0592996,11.4925326 10.3044646,11.4925326 10.5026903,11.3768376 C10.700916,11.2611427 10.8214914,11.0476774 10.8182457,10.8181818 C10.8182457,9.05337682 12.235256,7.63636364 14.0000639,7.63636364 C15.7648718,7.63636364 17.1818821,9.05337682 17.1818821,10.8181818 C17.1942975,12.2473655 16.4269585,13.0168055 15.481598,13.9105114 C15.0089179,14.3573341 14.503669,14.813225 14.0895525,15.3821023 C13.675436,15.9509477 13.3637003,16.6600955 13.3637003,17.5 L13.3637003,17.8181818 C13.3604546,18.0476774 13.48103,18.2611427 13.6792557,18.3768376 C13.8774814,18.4925326 14.1226464,18.4925326 14.3208721,18.3768376 C14.5190978,18.2611427 14.6396732,18.0476774 14.6364275,17.8181818 L14.6364275,17.5 C14.6364275,16.9546364 14.807365,16.5486364 15.1137003,16.1278409 C15.4200355,15.7070455 15.8710987,15.2942045 16.356598,14.8352273 C17.3257951,13.9189909 18.4669443,12.7293855 18.4546094,10.8181818 C18.4545865,10.8146182 18.4546402,10.8117705 18.4546094,10.8082386 C18.449114,8.36019864 16.4493324,6.36363636 14.0000639,6.36363636 Z" id="Path" fill="#666666"></path>
                <path d="M14,19.7272727 C13.4728189,19.7272727 13.0454545,20.1546227 13.0454545,20.6818182 C13.0454545,21.2089818 13.4728189,21.6363636 14,21.6363636 C14.5271811,21.6363636 14.9545455,21.2089818 14.9545455,20.6818182 C14.9545455,20.1546227 14.5271811,19.7272727 14,19.7272727 Z" id="Path" fill="#666666"></path>
            </g>
        </g>
    </g>
</svg>