<?xml version="1.0" encoding="UTF-8"?>
<svg width="48px" height="48px" viewBox="0 0 48 48" version="1.1" xmlns="http://www.w3.org/2000/svg" xmlns:xlink="http://www.w3.org/1999/xlink">
    <!-- Generator: sketchtool 48.2 (47327) - http://www.bohemiancoding.com/sketch -->
    <title>9B054C8C-D841-404D-98C0-D0BAD9866C0B</title>
    <desc>Created with sketchtool.</desc>
    <defs></defs>
    <g id="Tool-Services" stroke="none" stroke-width="1" fill="none" fill-rule="evenodd" transform="translate(-824.000000, -658.000000)">
        <g id="HP" transform="translate(823.000000, 657.000000)" fill="#2767B2" fill-rule="nonzero">
            <g id="g3017" transform="translate(24.844946, 24.966957) scale(-1, 1) rotate(-180.000000) translate(-24.844946, -24.966957) translate(0.085330, 0.207341)">
                <g id="g3061" transform="translate(0.184407, 0.281855)">
                    <g id="g3021" transform="translate(0.369490, 0.293765)">
                        <path d="M48.3511579,24.1509527 C48.3511579,37.4009945 37.6108148,48.1413376 24.360773,48.1413376 C23.9995077,48.1413376 23.6400671,48.1322147 23.2824509,48.1157936 L18.3752646,34.6285574 L22.6493245,34.6285574 C25.1918655,34.6285574 26.5621191,32.6707916 25.6917983,30.27969 L19.6387807,13.6450672 L14.5564354,13.6459794 L21.0519117,31.475697 L17.2303456,31.475697 L10.7348693,13.6459794 L5.65069947,13.6459794 L13.2883578,34.6285574 L13.2892701,34.6285574 L17.8835424,47.2555079 C7.78088727,44.4292459 0.370388115,35.1558587 0.370388115,24.1509527 C0.370388115,12.8194483 8.22790741,3.32346338 18.791267,0.811940028 L23.2432226,13.0466075 L23.2468718,13.0466075 L31.1007419,34.6285574 L40.4617086,34.6285574 C43.0069865,34.6285574 44.3763278,32.6707916 43.5060069,30.27969 L38.1873796,15.6694298 C37.7823246,14.5564409 36.482317,13.6459794 35.2981698,13.6459794 L28.5509026,13.6459794 L23.6482776,0.171515258 C23.8845597,0.165129256 24.1226663,0.160567826 24.360773,0.160567826 C37.6108148,0.160567826 48.3511579,10.9018232 48.3511579,24.1509527" id="path3023"></path>
                    </g>
                    <g id="g3025" transform="translate(29.692170, 16.754141)">
                        <polyline id="path3027" points="9.55437674 15.0280927 5.73463527 15.0280927 0.384990181 0.350323313 4.20473165 0.350323313 9.55437674 15.0280927"></polyline>
                    </g>
                </g>
            </g>
        </g>
    </g>
</svg>