<?xml version="1.0" encoding="UTF-8"?>
<svg width="150px" height="40px" viewBox="0 0 150 40" version="1.1" xmlns="http://www.w3.org/2000/svg" xmlns:xlink="http://www.w3.org/1999/xlink">
    <!-- Generator: sketchtool 48.2 (47327) - http://www.bohemiancoding.com/sketch -->
    <title>20154732-ADF2-4F80-BD87-6D453BF6DCD8</title>
    <desc>Created with sketchtool.</desc>
    <defs></defs>
    <g id="HEADER" stroke="none" stroke-width="1" fill="none" fill-rule="evenodd" transform="translate(-36.000000, -18.000000)">
        <g id="Macys" transform="translate(36.000000, 18.000000)" fill-rule="nonzero">
            <path d="M5.0931025,31.184141 C5.125656,31.071676 5.528071,29.829446 5.987359,28.423631 C6.852797,25.774641 8.043404,22.078891 8.0654995,21.972891 C8.0724545,21.939526 7.3476725,21.383591 6.454872,20.737476 C5.562072,20.091361 3.7444893,18.776746 2.41579955,17.816101 L0,16.069481 L5.0097985,16.026881 L10.0195965,15.984281 L11.179057,12.448441 C11.81676,10.503726 12.4862935,8.433341 12.666908,7.847586 C12.8475235,7.261826 13.0253095,6.750406 13.0619855,6.711096 C13.098664,6.671786 13.205569,6.882661 13.2995525,7.179701 C13.3935385,7.476746 14.077381,9.588881 14.819203,11.873331 L16.1679725,16.026881 L21.151324,16.026881 C25.424501,16.032206 25.7834445,16.051856 25.861498,16.051856 C25.973573,16.051856 24.9074765,16.974381 23.7125315,17.835681 C19.2240515,21.070906 18.079179,21.927026 18.114846,22.021541 C18.1484235,22.110521 20.8994785,30.577416 21.076859,31.137696 L21.153867,31.380936 L20.9208815,31.228581 C20.708616,31.089776 18.13626,29.223761 17.1094525,28.463726 C15.389186,27.190401 13.186192,25.629296 13.098509,25.621461 C13.0044825,25.613051 9.2429295,28.292221 6.588679,30.258091 C6.048929,30.657856 5.4783005,31.075766 5.3206155,31.186776 L5.033915,31.388621 L5.0931025,31.184141 Z" id="path2215" fill="#E70000"></path>
            <path d="M122.24804,39.648866 C122.28179,39.566856 122.462355,39.097186 122.6493,38.605151 C122.83625,38.113116 123.3077,36.943731 123.696975,36.006521 C124.425605,34.252276 125.368375,31.925506 125.59754,31.315891 L125.72737,30.970516 L125.208835,29.697071 C124.35788,27.607266 123.30908,24.982176 122.998045,24.163581 C122.8378,23.741836 122.34799,22.514941 121.90956,21.437146 C120.709725,18.487526 119.75195,16.096881 119.33558,15.012346 C119.130345,14.477781 118.641295,13.250886 118.24879,12.285911 C117.856295,11.320941 117.24154,9.802946 116.882685,8.912596 C116.523825,8.022246 116.21292,7.255436 116.19177,7.208576 C116.16698,7.153616 116.41654,7.138496 116.89496,7.165976 L117.636585,7.208576 L117.94888,8.017986 C118.120645,8.463161 118.84396,10.265161 119.55625,12.022436 C120.26853,13.779706 121.07465,15.792581 121.34762,16.495486 C121.620595,17.198396 122.09248,18.367781 122.396255,19.094121 C122.70003,19.820456 123.04627,20.683116 123.16567,21.011141 C123.28508,21.339166 123.678085,22.316846 124.039035,23.183766 C124.39998,24.050686 124.787795,25.009201 124.90085,25.313791 C125.281485,26.339291 126.41579,29.062646 126.461885,29.061666 C126.487005,29.061126 126.676985,28.648966 126.884075,28.145751 C127.29999,27.135081 128.91393,23.169091 129.6141,21.437146 C129.860385,20.827961 130.312835,19.716086 130.61956,18.966316 C131.273385,17.368066 132.642565,13.984721 133.274465,12.405841 C133.518275,11.796651 134.05898,10.473906 134.47602,9.466406 C134.89307,8.458901 135.272055,7.531916 135.318225,7.406441 C135.39965,7.185106 135.425195,7.177481 136.17458,7.150836 C136.797425,7.128691 136.93839,7.145731 136.902495,7.238806 C136.87801,7.302291 136.65112,7.858226 136.398295,8.474221 C135.8889,9.715311 135.237975,11.321596 134.45978,13.257851 C134.17728,13.960756 133.568075,15.456036 133.106005,16.580691 C131.29561,20.987041 130.858205,22.061761 130.574635,22.800361 C130.41271,23.222106 129.90555,24.468171 129.44761,25.569396 C128.989665,26.670621 128.585915,27.667471 128.550365,27.784621 C128.51483,27.901776 128.131725,28.841116 127.69902,29.872046 C127.26631,30.902981 126.883735,31.842321 126.848845,31.959471 C126.813945,32.076626 126.44016,32.996796 126.01821,34.004296 C125.59625,35.011801 125.11951,36.181181 124.958785,36.602926 C124.798065,37.024671 124.43493,37.916091 124.151815,38.583851 L123.63707,39.797966 L122.911865,39.797966 C122.254625,39.797966 122.19242,39.783996 122.24804,39.648866 Z M141.708155,31.315866 C140.913165,31.171916 139.970735,30.838366 139.38654,30.494176 C138.76999,30.130921 137.72588,29.232591 137.356095,28.747231 C136.266785,27.317431 135.554605,25.493456 135.483225,23.950576 L135.45366,23.311571 L136.02298,23.286506 L136.592305,23.261446 L136.64246,23.669911 C136.849345,25.354616 137.578235,27.160516 138.429835,28.098346 C139.65615,29.448816 141.331005,30.255451 142.90875,30.255451 C143.593585,30.255451 144.615,30.017706 145.27331,29.705081 C147.31551,28.735246 148.61371,26.873316 148.761675,24.701921 C148.827255,23.739691 148.69344,23.062921 148.264535,22.187581 C147.53311,20.694831 145.728015,19.387561 142.97887,18.359646 C140.018645,17.252811 138.65941,16.295266 137.917445,14.794006 C137.584955,14.121271 137.37829,13.155616 137.373655,12.253146 C137.36252,10.085236 138.596115,8.041316 140.470535,7.121966 C141.47301,6.630281 142.080125,6.480671 143.08338,6.478091 C144.815215,6.473626 146.179355,7.037506 147.42707,8.273591 C148.414465,9.251786 148.947755,10.316171 149.0928,11.598236 L149.15043,12.107636 L148.56033,12.107636 L147.97022,12.107636 L147.872535,11.537376 C147.71717,10.630326 147.287845,9.867406 146.50297,9.103611 C145.63981,8.263626 144.848325,7.863121 143.793155,7.732391 C141.41665,7.437956 139.4368,8.740906 138.77396,11.035536 C138.57254,11.732836 138.632935,13.233536 138.88882,13.889211 C139.438335,15.297316 140.42449,16.057526 142.95135,17.020951 C146.211455,18.263941 147.95848,19.433501 149.102555,21.138941 C149.74308,22.093756 150.00798,23.049601 149.999815,24.376581 C149.99035,25.915386 149.62968,27.049796 148.72275,28.393241 C148.26321,29.073971 147.824645,29.512576 146.9856,30.130541 C146.287755,30.644521 145.92984,30.823656 145.11113,31.068706 C143.84797,31.446786 142.836815,31.520226 141.708155,31.315866 Z M31.700127,31.295581 L31.039819,31.270696 L31.039819,19.224826 L31.024757,7.126236 L31.618419,7.124806 L32.400348,7.123376 L32.4229925,9.029606 L32.4456355,10.935836 L32.78644,10.437536 C33.502826,9.390091 35.005825,8.120431 36.2903145,7.477626 C36.983718,7.130626 38.3874015,6.751051 39.3891785,6.639661 C41.582511,6.395771 44.042181,7.076966 45.8221955,8.421251 C46.96369,9.283321 47.7797205,10.261386 48.531713,11.668791 L48.906332,12.369916 L49.0501545,11.993326 C49.129256,11.786201 49.4183875,11.276686 49.692669,10.861071 C50.87384,9.071261 52.4301,7.805521 54.214495,7.183366 C55.49308,6.737566 56.1935,6.614926 57.452135,6.616461 C58.684255,6.617966 59.170975,6.695546 60.420275,7.089571 C61.3569,7.384976 61.708755,7.555721 62.551445,8.123771 C64.32295,9.317926 65.531495,10.935461 66.22824,13.044846 C66.720795,14.536056 66.739025,14.909001 66.739245,23.497466 L66.739445,31.320466 L66.05764,31.292676 L65.37583,31.264891 L65.37506,23.070776 L65.374285,14.876666 L65.1652,13.954941 C64.623635,11.567481 63.00978,9.623731 60.657295,8.525556 C59.67278,8.065966 59.087925,7.927566 57.898505,7.872696 C56.34373,7.800976 55.245065,8.016716 54.001495,8.637946 C51.95153,9.662006 50.493245,11.399386 49.7635905,13.686916 L49.574331,14.280261 L49.549016,22.779061 L49.5237025,31.277866 L48.8894665,31.277866 L48.255228,31.277866 L48.2306155,22.906866 C48.2023765,13.303556 48.2634995,14.056646 47.3645045,12.235436 C46.5722005,10.630361 45.3243855,9.397271 43.7016795,8.615836 C42.629629,8.099576 41.8984085,7.923036 40.617999,7.871336 C38.856863,7.800221 37.505927,8.153276 36.1092795,9.049646 C35.1343115,9.675386 34.6824445,10.077356 34.071233,10.862651 C33.3690835,11.764786 33.076735,12.305521 32.7302045,13.343051 L32.4456355,14.195061 L32.403035,22.757761 L32.3604345,31.320466 L31.700127,31.295581 Z M78.97149,31.184016 C76.950355,30.971036 75.37658,30.439421 73.66022,29.389871 C71.19629,27.883186 69.196575,25.288666 68.41481,22.584221 C67.9682,21.039221 67.891735,20.498991 67.890665,18.881116 C67.889555,17.206986 67.97816,16.605096 68.4545,15.050961 C69.544095,11.495976 72.68374,8.306486 76.2003,7.182186 C79.042065,6.273631 81.42129,6.272301 84.280195,7.177676 C86.804585,7.977116 89.493285,10.139656 90.79163,12.414866 C90.988255,12.759436 91.18747,13.056456 91.23433,13.074901 C91.29041,13.096976 91.311525,12.092981 91.296095,10.137206 L91.272655,7.165976 L91.9564,7.165976 L92.64015,7.165976 L92.64015,19.221921 L92.64015,31.277866 L91.95953,31.277866 L91.27891,31.277866 L91.25662,27.933726 L91.23433,24.589586 L90.94252,25.100791 C89.83333,27.043911 88.169755,28.635511 85.95312,29.874326 C84.75178,30.545721 83.142165,31.010676 81.405895,31.187836 C80.419155,31.288516 79.9563,31.287791 78.97149,31.184016 Z M82.08712,29.782821 C84.741175,29.291641 87.122755,27.895286 88.76104,25.869796 C89.569165,24.870681 90.0316,24.101161 90.434125,23.085701 C91.570665,20.218526 91.56867,17.534536 90.427895,14.671141 C89.71162,12.873236 88.42786,11.221496 86.790015,9.990481 C85.541125,9.051801 83.38442,8.152576 81.862225,7.935866 C80.967305,7.808461 79.21477,7.830276 78.35922,7.979471 C76.79227,8.252726 74.84082,9.104316 73.546275,10.079786 C72.810835,10.633956 71.775495,11.703841 71.205105,12.499071 C70.715775,13.181286 69.953005,14.707136 69.683575,15.542751 C68.943165,17.839066 69.011275,20.554976 69.863455,22.715161 C70.70475,24.847766 71.95009,26.483936 73.76785,27.844896 C74.866675,28.667581 76.86826,29.519606 78.319445,29.782386 C79.221,29.945641 81.20609,29.945871 82.08712,29.782821 Z M104.485535,31.179881 C101.58935,30.877571 99.12778,29.698681 97.063775,27.625456 C95.239745,25.793271 94.210745,23.897651 93.6917,21.413371 C93.497945,20.486046 93.465245,20.120371 93.465245,18.881116 C93.465245,16.151111 94.044705,14.238171 95.58962,11.868066 C95.847045,11.473141 96.44347,10.753476 96.91501,10.268816 C98.74195,8.391041 100.736325,7.313496 103.464215,6.730351 C104.634605,6.480156 106.776405,6.456941 107.93373,6.681901 C110.69024,7.217711 112.834215,8.352746 114.66699,10.246541 C115.181425,10.778106 115.77951,11.482426 115.99605,11.811696 C116.529985,12.623566 117.21007,13.893231 117.145565,13.957741 C117.11669,13.986606 116.789715,14.027786 116.418935,14.049251 L115.74479,14.088276 L115.475605,13.545261 C115.15653,12.901606 114.48748,11.993566 113.756695,11.212361 C112.30369,9.659096 109.8626,8.358706 107.687895,7.979471 C106.712145,7.809316 104.895265,7.809316 103.91952,7.979471 C101.2347,8.447666 98.596665,10.079101 96.918935,12.308826 C96.01715,13.507311 95.163215,15.499346 94.897125,17.025251 C94.73491,17.955451 94.73403,19.801761 94.89537,20.726916 C95.14285,22.146081 95.89976,23.976631 96.74557,25.201541 C97.28788,25.986916 98.421345,27.152911 99.24323,27.770876 C99.90057,28.265126 101.574185,29.122621 102.438265,29.407896 C104.468315,30.078111 107.04634,30.092306 109.042165,29.444266 C109.99741,29.134096 111.351025,28.473091 112.12413,27.939251 C113.386825,27.067351 114.89647,25.388886 115.49465,24.191811 L115.742925,23.694976 L116.51068,23.694976 L117.278435,23.694976 L116.84034,24.514886 C116.126715,25.850491 115.5908,26.576801 114.545175,27.625456 C112.82773,29.347886 110.777435,30.492191 108.609505,30.938261 C107.07815,31.253346 105.86839,31.324226 104.485535,31.179881 Z M137.88189,4.58918595 C137.88189,4.57215595 138.01252,4.17034095 138.17217,3.69626095 L138.46245,2.83429595 L137.937865,2.47100095 C137.64935,2.27119095 137.306415,2.02019095 137.175795,1.91323095 L136.938305,1.71875095 L137.8948,1.69463095 L138.85129,1.67051095 L139.073965,0.90370095 C139.19643,0.48195596 139.31699,0.0793809597 139.34187,0.0090909607 C139.366745,-0.0611990403 139.521185,0.28386596 139.68505,0.77590095 L139.98299,1.67051095 L140.90143,1.71311095 L141.81988,1.75571095 L141.491005,2.01653595 C141.310125,2.15998595 140.982575,2.39969095 140.763125,2.54921595 L140.36411,2.82107095 L140.656625,3.68965095 C140.8175,4.16736595 140.949125,4.57211095 140.949125,4.58908595 C140.949125,4.60605595 140.60183,4.37967095 140.17735,4.08600595 C139.61569,3.69742595 139.37353,3.57429095 139.28786,3.63370095 C139.223115,3.67860095 138.880285,3.91891595 138.52602,4.16774095 C138.171745,4.41656095 137.88189,4.60621095 137.88189,4.58918595 Z" id="path2211" fill="#000000"></path>
        </g>
    </g>
</svg>