<?xml version="1.0" encoding="UTF-8"?>
<svg width="60px" height="60px" viewBox="0 0 60 60" version="1.1" xmlns="http://www.w3.org/2000/svg" xmlns:xlink="http://www.w3.org/1999/xlink">
    <!-- Generator: sketchtool 48.2 (47327) - http://www.bohemiancoding.com/sketch -->
    <title>22CD9C08-B312-469D-BC9E-AE55E7B3133D</title>
    <desc>Created with sketchtool.</desc>
    <defs></defs>
    <g id="Home" stroke="none" stroke-width="1" fill="none" fill-rule="evenodd" transform="translate(-301.000000, -423.000000)">
        <g id="Group-3" transform="translate(171.000000, 150.000000)" fill="#AF0000" fill-rule="nonzero">
            <g id="Performance-Eng-Icon" transform="translate(130.000000, 273.000000)">
                <path d="M22.5000016,15 C34.9265641,15 45.0000016,11.6423438 45.0000016,7.5 C45.0000016,3.3571875 34.9265641,0 22.5000016,0 C10.0734391,0 1.57343493e-06,3.3571875 1.57343493e-06,7.5 C1.57343493e-06,11.6423438 10.0734391,15 22.5000016,15 Z M22.5000016,1.875 C35.8453141,1.875 43.1250016,5.59078125 43.1250016,7.5 C43.1250016,9.40921875 35.8453141,13.125 22.5000016,13.125 C9.15468907,13.125 1.87500157,9.40921875 1.87500157,7.5 C1.87500157,5.59078125 9.15468907,1.875 22.5000016,1.875 Z" id="Shape"></path>
                <path d="M45.0000016,19.21875 L45.0000016,17.6864063 C45.0000016,17.2382812 44.6610953,16.875 44.2439078,16.875 C44.1810953,16.875 44.1206266,16.8853125 44.0625016,16.90125 C44.0967203,17.0967188 44.1178141,17.296875 44.1178141,17.5017187 L44.1178141,18.8920312 C44.4159391,18.99 44.7089078,19.1010938 45.0000016,19.21875 Z" id="Shape"></path>
                <path d="M0.463126573,25.19625 C0.922970323,25.4746875 8.39625157,29.8640625 21.2217203,30 C21.4626578,29.4121875 21.7303141,28.8351563 22.0312516,28.2717188 L21.8282828,28.0696875 C10.7779703,28.0345313 3.68765782,24.7739063 1.89093907,23.8420313 L1.88062657,17.80875 C1.87968907,17.293125 1.45875157,16.875 0.940314073,16.875 C0.939845323,16.875 0.939376573,16.875 0.938439073,16.875 C0.419064073,16.8759375 -0.000935926565,17.295 1.57343501e-06,17.8125 L0.0117203234,24.3989062 C0.0121890734,24.7246875 0.183751573,25.0270313 0.463126573,25.19625 Z" id="Shape"></path>
                <path d="M0.471095323,40.1934375 C0.944532823,40.4751562 8.71172032,44.9610938 22.0312516,45 C21.7237516,44.3676562 21.4560953,43.719375 21.2240641,43.0575 C10.5426578,42.8451562 3.69703282,39.7439062 1.92328282,38.8401562 L1.91250157,32.8082813 C1.91156407,32.293125 1.48406407,31.875 0.956251573,31.875 C0.955782823,31.875 0.955314073,31.875 0.954376573,31.875 C0.426095323,31.8759375 -0.000935926565,32.295 1.57343491e-06,32.8120312 L0.0117203234,39.3960937 C0.0121890734,39.721875 0.186564073,40.0242188 0.471095323,40.1934375 Z" id="Shape"></path>
                <path d="M0.461251573,55.1925 C0.926251573,55.4751562 8.59265782,60 21.7345328,60 C25.3387516,60 29.3573453,59.6573438 33.7500016,58.7953125 C33.3482828,58.2820313 33.0750016,57.6773437 32.9723453,57.0201562 C15.5676578,60.2625 4.22250157,55.0570313 1.88297032,53.8396875 L1.87218907,47.80875 C1.87125157,47.293125 1.45312657,46.875 0.936095323,46.875 C0.935626573,46.875 0.935157823,46.875 0.934220323,46.875 C0.417189073,46.8759375 -0.000935926565,47.295 1.57343494e-06,47.8120312 L0.0112515734,54.3951562 C0.0117203234,54.7204687 0.182345323,55.0232812 0.461251573,55.1925 Z" id="Shape"></path>
                <path d="M45.0000016,55.0026562 L45.0000016,54.4640625 C44.6390641,54.6 44.2757828,54.7284375 43.9064078,54.841875 L43.9064078,56.0475 C44.0634391,55.993125 44.2181266,55.9420312 44.3760953,55.88625 C44.7501578,55.753125 45.0000016,55.3992187 45.0000016,55.0026562 Z" id="Shape"></path>
                <path d="M57.8695328,32.9685937 L54.8175016,32.9685937 C54.3881266,31.00125 53.6128141,29.1651562 52.5595328,27.5221875 L54.7200016,25.3626562 C55.5520328,24.5310937 55.4671891,23.0995312 54.5315641,22.1625 L52.8379703,20.4689062 C52.3331266,19.965 51.6848453,19.7076562 51.0646891,19.7076562 C50.5326578,19.7076562 50.0212516,19.8960937 49.6378141,20.2804687 L47.4778141,22.4409375 C45.8348453,21.3876562 43.9987516,20.6123437 42.0314078,20.1829687 L42.0314078,17.1309375 C42.0314078,15.954375 40.9579703,15.0004687 39.6346891,15.0004687 L37.2412516,15.0004687 C35.9175016,15.0004687 34.8440641,15.954375 34.8440641,17.1309375 L34.8440641,20.1829687 C32.8767203,20.6123437 31.0406266,21.3876562 29.3976578,22.4409375 L27.2381266,20.2804687 C26.8546891,19.8965625 26.3432828,19.7076562 25.8117203,19.7076562 C25.1910953,19.7076562 24.5432828,19.965 24.0389078,20.4689062 L22.3448453,22.1625 C21.4087516,23.0995312 21.3234391,24.5310937 22.1564078,25.3626562 L24.3164078,27.5221875 C23.2631266,29.1651562 22.4882828,31.00125 22.0589078,32.9685937 L19.0059391,32.9685937 C17.8298453,32.9685937 16.8759391,34.0420312 16.8759391,35.3653125 L16.8759391,37.7592187 C16.8759391,39.0825 17.8298453,40.1559375 19.0059391,40.1559375 L22.0589078,40.1559375 C22.4882828,42.1232812 23.2631266,43.959375 24.3164078,45.6023437 L22.1564078,47.761875 C21.3239078,48.5934375 21.4087516,50.025 22.3448453,50.9615625 L24.0389078,52.655625 C24.5432828,53.1595312 25.1910953,53.416875 25.8117203,53.416875 C26.3432828,53.416875 26.8546891,53.2284375 27.2381266,52.8440625 L29.3976578,50.6835937 C31.0406266,51.736875 32.8767203,52.5121875 34.8440641,52.9415625 L34.8440641,55.9935937 C34.8440641,57.1701563 35.9175016,58.1240625 37.2412516,58.1240625 L39.6346891,58.1240625 C40.9579703,58.1240625 42.0314078,57.1701563 42.0314078,55.9935937 L42.0314078,52.9415625 C43.9987516,52.5121875 45.8348453,51.736875 47.4778141,50.6835937 L49.6378141,52.8440625 C50.0212516,53.2279687 50.5326578,53.416875 51.0646891,53.416875 C51.6853141,53.416875 52.3331266,53.1595312 52.8379703,52.655625 L54.5315641,50.9615625 C55.4671891,50.025 55.5525016,48.5934375 54.7200016,47.761875 L52.5595328,45.6023437 C53.6128141,43.959375 54.3881266,42.1232812 54.8175016,40.1559375 L57.8695328,40.1559375 C59.0460953,40.1559375 60.0000016,39.0825 60.0000016,37.7592187 L60.0000016,35.3653125 C60.0000016,34.0420312 59.0460953,32.9685937 57.8695328,32.9685937 Z M58.1250016,37.7596875 C58.1250016,38.0967187 57.9332828,38.2814062 57.8695328,38.2814062 L53.3076578,38.2814062 L52.9856266,39.7570312 C52.6106266,41.4745312 51.9365641,43.1010937 50.9812516,44.59125 L50.1665641,45.8620312 L53.3948453,49.089375 C53.4398453,49.134375 53.4435953,49.3996875 53.2059391,49.6373437 L51.5137516,51.3304687 C51.4256266,51.4185937 51.0970328,51.65625 50.9643766,51.5198437 L47.7370328,48.2915625 L46.4662516,49.10625 C44.9760953,50.0615625 43.3500016,50.7360937 41.6320328,51.110625 L40.1564078,51.4326562 L40.1564078,55.9945312 C40.1564078,56.0582812 39.9712516,56.25 39.6346891,56.25 L37.2412516,56.25 C36.9042203,56.25 36.7190641,56.0582812 36.7190641,55.9945312 L36.7190641,51.4326562 L35.2434391,51.110625 C33.5259391,50.735625 31.8993766,50.0615625 30.4092203,49.10625 L29.1384391,48.2915625 C29.1384391,48.2915625 25.9265641,51.504375 25.9110953,51.5198437 C25.7789078,51.6515625 25.4484391,51.4157812 25.3635953,51.3314062 L23.6700016,49.6373437 C23.5790641,49.5464062 23.3460953,49.224375 23.4810953,49.089375 L26.7089078,45.8620312 L25.8942203,44.59125 C24.9393766,43.1020312 24.2648453,41.475 23.8903141,39.7570312 L23.5678141,38.2814062 L19.0054703,38.2814062 C18.9417203,38.2814062 18.7504703,38.09625 18.7504703,37.7596875 L18.7504703,35.3657812 C18.7504703,35.02875 18.9417203,34.8440625 19.0054703,34.8440625 L23.5678141,34.8440625 L23.8903141,33.3684375 C24.2653141,31.6504687 24.9393766,30.0234375 25.8942203,28.5342187 L26.7089078,27.2634375 C26.7089078,27.2634375 23.4914078,24.0464062 23.4806266,24.035625 C23.3489078,23.9034375 23.5846891,23.5734375 23.6695328,23.488125 L25.3635953,21.7945312 C25.4545328,21.7035937 25.7760953,21.470625 25.9110953,21.605625 L29.1384391,24.8339062 L30.4092203,24.0192187 C31.8993766,23.0639062 33.5254703,22.389375 35.2434391,22.0148437 L36.7190641,21.6928125 L36.7190641,17.1309375 C36.7190641,17.0671875 36.9046891,16.8754687 37.2412516,16.8754687 L39.6346891,16.8754687 C39.9717203,16.8754687 40.1564078,17.0671875 40.1564078,17.1309375 L40.1564078,21.6928125 L41.6320328,22.0148437 C43.3495328,22.3898437 44.9760953,23.0639062 46.4662516,24.0192187 L47.7370328,24.8339062 C47.7370328,24.8339062 50.9456266,21.624375 50.9643766,21.605625 C51.0965641,21.4739062 51.4284391,21.7101562 51.5128141,21.7940625 L53.2054703,23.4867187 C53.4435953,23.7257812 53.4398453,23.9910937 53.3948453,24.0360937 L50.1665641,27.2634375 L50.9812516,28.5342187 C51.9365641,30.024375 52.6110953,31.6504687 52.9856266,33.3684375 L53.3076578,34.8440625 L57.8695328,34.8440625 C57.9332828,34.8440625 58.1250016,35.02875 58.1250016,35.3657812 L58.1250016,37.7596875 Z" id="Shape"></path>
                <path d="M38.4375016,26.25 C32.7417203,26.25 28.1250016,30.8667188 28.1250016,36.5625 C28.1250016,42.2582812 32.7417203,46.875 38.4375016,46.875 C44.1332828,46.875 48.7500016,42.2582812 48.7500016,36.5625 C48.7500016,30.8667188 44.1332828,26.25 38.4375016,26.25 Z M38.4375016,45 C33.7851578,45 30.0000016,41.2148438 30.0000016,36.5625 C30.0000016,31.9101562 33.7851578,28.125 38.4375016,28.125 C43.0898453,28.125 46.8750016,31.9101562 46.8750016,36.5625 C46.8750016,41.2148438 43.0898453,45 38.4375016,45 Z" id="Shape"></path>
            </g>
        </g>
    </g>
</svg>