<?xml version="1.0" encoding="UTF-8"?>
<svg width="74px" height="64px" viewBox="0 0 74 64" version="1.1" xmlns="http://www.w3.org/2000/svg" xmlns:xlink="http://www.w3.org/1999/xlink">
    <!-- Generator: sketchtool 48.2 (47327) - http://www.bohemiancoding.com/sketch -->
    <title>22FF4292-1A0D-4739-9F34-1A228FFFD382</title>
    <desc>Created with sketchtool.</desc>
    <defs></defs>
    <g id="Home" stroke="none" stroke-width="1" fill="none" fill-rule="evenodd" transform="translate(-636.000000, -648.000000)">
        <g id="Group-3" transform="translate(171.000000, 150.000000)" fill="#AF0000" fill-rule="nonzero">
            <g id="Ticket-Status_Icon" transform="translate(465.000000, 498.000000)">
                <path d="M70.6133333,30.1669136 L69.2385185,29.7955556 C69.1742114,29.702528 69.0906836,29.6243891 68.9935802,29.5664198 L20.0059259,1.3037037 C18.1401103,0.230493596 15.7576581,0.87029158 14.6804938,2.73382716 L1.31160494,25.9239506 C0.794036554,26.819559 0.653947089,27.8842514 0.92222674,28.8832596 C1.19050639,29.8822678 1.84512192,30.7335454 2.7417284,31.2493827 L4.15604938,32.0395062 L1.16148148,43.2592593 C0.65601021,45.3264059 1.87872492,47.4224883 3.92691358,48 L15.091358,51.0340741 L61.708642,63.5417284 C62.0410941,63.6307067 62.3837478,63.6758626 62.7279012,63.6760494 C64.4916964,63.674757 66.0345241,62.4884651 66.4888889,60.7841975 L73.4024691,34.9392593 C73.9257245,32.8546224 72.686437,30.7341419 70.6133333,30.1669136 Z M16.0948148,3.53185185 C16.7375555,2.43016081 18.1483642,2.05276948 19.2553086,2.68641975 L63.6049383,28.2864198 L12.8553086,14.6646914 C11.455801,14.2742056 9.95612997,14.7158265 8.99160494,15.8024691 L16.0948148,3.53185185 Z M3.53185185,29.8824691 C2.42357262,29.2452807 2.04154961,27.8303807 2.67851852,26.7219753 L8.1145679,17.3037037 C8.1145679,17.3432099 8.1145679,17.382716 8.06716049,17.4222222 L4.58271605,30.482963 L3.53185185,29.8824691 Z M71.8459259,34.5362963 L64.9323457,60.3812346 C64.7732299,60.9760679 64.3837014,61.4830067 63.8499062,61.7899389 C63.3161111,62.0968711 62.682033,62.1785062 62.0879012,62.0167901 L16.2607407,49.7145679 L17.0508642,46.6567901 C17.1354951,46.3807252 17.0627955,46.08048 16.8612534,45.8737072 C16.6597112,45.6669344 16.3614268,45.5865676 16.0832845,45.664099 C15.8051422,45.7416304 15.591443,45.9647112 15.5259259,46.2459259 L14.7358025,49.2958025 L4.33777778,46.5066667 C3.09849762,46.1749976 2.36270926,44.9015177 2.69432099,43.6622222 L9.60790123,17.817284 C9.76701703,17.2224506 10.1565456,16.7155118 10.6903407,16.4085796 C11.2241358,16.1016474 11.858214,16.0200123 12.4523457,16.1817284 L22.8424691,18.962963 L22.0523457,22.0128395 C21.941946,22.4338208 22.192769,22.8648125 22.6133333,22.9767901 C22.6815189,22.9857301 22.7505799,22.9857301 22.8187654,22.9767901 C23.1860692,22.9893717 23.5135493,22.7470364 23.6088889,22.3920988 L24.3990123,19.3422222 L70.2261728,31.6444444 C71.4623339,32.0079407 72.1817308,33.2923274 71.8459259,34.5362963 Z" id="Shape"></path>
                <path d="M20.8355556,29.5506173 C20.4145742,29.4402176 19.9835826,29.6910406 19.8716049,30.1116049 L17.7145679,38.1787654 C17.6041682,38.5997468 17.8549912,39.0307384 18.2755556,39.142716 C18.3437411,39.151656 18.4128021,39.151656 18.4809877,39.142716 C18.8482914,39.1552976 19.1757715,38.9129623 19.2711111,38.5580247 L21.4281481,30.482963 C21.5168025,30.0627832 21.2536293,29.6487241 20.8355556,29.5506173 Z" id="Shape"></path>
                <path d="M61.574321,35.5555556 C61.4700632,35.3726896 61.2971465,35.238985 61.0939288,35.1841014 C60.8907111,35.1292178 60.6739941,35.1576928 60.4918519,35.2632099 L56.6834568,37.4597531 L54.5185185,33.6671605 C54.4142608,33.4842946 54.241344,33.35059 54.0381263,33.2957063 C53.8349087,33.2408227 53.6181916,33.2692978 53.4360494,33.3748148 L49.6039506,35.5555556 L47.4074074,31.762963 C47.3031497,31.580097 47.1302329,31.4463924 46.9270152,31.3915088 C46.7237976,31.3366252 46.5070805,31.3651002 46.3249383,31.4706173 L42.5165432,33.6671605 L40.2962963,29.8587654 C40.1920385,29.6758995 40.0191218,29.5421949 39.8159041,29.4873113 C39.6126865,29.4324277 39.3959694,29.4609027 39.2138272,29.5664198 L34.7654321,32.1580247 C34.4080967,32.385182 34.293349,32.8536468 34.5052498,33.2202353 C34.7171506,33.5868237 35.1803651,33.7212063 35.5555556,33.5249383 L39.3639506,31.3283951 L41.5683951,35.1367901 C41.6726528,35.3196561 41.8455696,35.4533607 42.0487872,35.5082443 C42.2520049,35.5631279 42.468722,35.5346528 42.6508642,35.4291358 L46.4592593,33.2325926 L48.6637037,37.0409877 C48.7679615,37.2238536 48.9408782,37.3575582 49.1440959,37.4124418 C49.3473135,37.4673254 49.5640306,37.4388504 49.7461728,37.3333333 L53.5545679,35.1367901 L55.7590123,38.9451852 C55.8632701,39.1280511 56.0361868,39.2617557 56.2394045,39.3166393 C56.4426222,39.3715229 56.6593393,39.3430479 56.8414815,39.2375309 L60.6498765,37.0409877 L62.854321,40.8493827 C63.0814783,41.2067181 63.5499431,41.3214658 63.9165316,41.109565 C64.28312,40.8976642 64.4175026,40.4344497 64.2212346,40.0592593 L61.574321,35.5555556 Z" id="Shape"></path>
                <path d="M61.8034568,46.7674074 L40.5412346,41.0864198 C40.2651696,41.0017889 39.9649244,41.0744884 39.7581516,41.2760306 C39.5513789,41.4775728 39.4710121,41.7758572 39.5485434,42.0539995 C39.6260748,42.3321417 39.8491556,42.545841 40.1303704,42.611358 L61.3846914,48.3160494 C61.6613296,48.3908546 61.956862,48.3123928 62.1599644,48.1102196 C62.3630667,47.9080465 62.442883,47.612877 62.3693471,47.3358987 C62.2958112,47.0589203 62.080095,46.8422126 61.8034568,46.7674074 Z" id="Shape"></path>
                <path d="M60.8395062,50.3071605 L39.5851852,44.6024691 C39.1704606,44.5058472 38.7537683,44.7552626 38.6429871,45.1664314 C38.5322059,45.5776002 38.7671912,46.0025971 39.174321,46.1274074 L60.4444444,51.8320988 C60.8503087,51.9035227 61.2429087,51.6510174 61.3462587,51.2520865 C61.4496087,50.8531555 61.2289967,50.441787 60.8395062,50.3071605 Z" id="Shape"></path>
                <path d="M59.9071605,53.8469136 L38.6528395,48.1422222 C38.3767746,48.0575914 38.0765293,48.1302909 37.8697566,48.3318331 C37.6629838,48.5333752 37.582617,48.8316597 37.6601484,49.1098019 C37.7376797,49.3879442 37.9607605,49.6016435 38.2419753,49.6671605 L59.4962963,55.3718519 C59.9110208,55.4684738 60.3277132,55.2190584 60.4384944,54.8078896 C60.5492756,54.3967208 60.3142903,53.9717239 59.9071605,53.8469136 Z" id="Shape"></path>
            </g>
        </g>
    </g>
</svg>