<?xml version="1.0" encoding="UTF-8"?>
<svg width="40px" height="40px" viewBox="0 0 40 40" version="1.1" xmlns="http://www.w3.org/2000/svg" xmlns:xlink="http://www.w3.org/1999/xlink">
    <!-- Generator: sketchtool 48.2 (47327) - http://www.bohemiancoding.com/sketch -->
    <title>1005C796-8A29-4FD7-83BE-9FFCDF46B53D</title>
    <desc>Created with sketchtool.</desc>
    <defs></defs>
    <g id="Tool-Services" stroke="none" stroke-width="1" fill="none" fill-rule="evenodd" transform="translate(-1068.000000, -662.000000)">
        <g id="Tools" transform="translate(1068.000000, 662.000000)" fill="#696969" fill-rule="nonzero">
            <path d="M35.6337778,31.6177778 C34.5271111,30.5106667 32.7266667,30.5115556 31.6191111,31.6177778 C31.0831111,32.1537778 30.788,32.8671111 30.788,33.6253333 C30.788,34.3835556 31.0835556,35.096 31.6191111,35.6324444 C32.1555556,36.1684444 32.8684444,36.464 33.6266667,36.464 C34.3848889,36.464 35.0977778,36.1684444 35.6337778,35.6324444 C36.1697778,35.0964444 36.4653333,34.3835556 36.4653333,33.6253333 C36.4653333,32.8671111 36.1702222,32.1537778 35.6337778,31.6177778 Z M34.2706667,34.2693333 C33.9266667,34.6137778 33.3271111,34.6137778 32.9826667,34.2693333 C32.8106667,34.0968889 32.716,33.8688889 32.716,33.6253333 C32.716,33.3817778 32.8106667,33.1533333 32.9826667,32.9808889 C33.16,32.8035556 33.3937778,32.7151111 33.6266667,32.7151111 C33.8595556,32.7151111 34.0928889,32.8035556 34.2706667,32.9808889 C34.4426667,33.1533333 34.5373333,33.3817778 34.5373333,33.6253333 C34.5373333,33.8684444 34.4431111,34.0968889 34.2706667,34.2693333 Z" id="Shape"></path>
            <path d="M25.4035556,16.7657778 L30.9182222,11.2511111 L33.2937778,13.6266667 L39.5004444,5.05644444 L35.7502222,1.30622222 L27.1795556,7.51244444 L29.5551111,9.888 L24.0408889,15.4026667 L18.6053333,9.96711111 C18.7964444,7.26622222 17.8271111,4.65244444 15.9071111,2.732 C13.2342222,0.0591111111 9.24933333,-0.733333333 5.75377778,0.714222222 L4.42088889,1.26622222 L9.20622222,6.05111111 L8.16888889,8.36622222 L6.07022222,9.22088889 L1.26755556,4.41866667 L0.715555556,5.752 C-0.731555556,9.24711111 0.0604444444,13.2324444 2.73333333,15.9053333 C4.65422222,17.8262222 7.26888889,18.796 9.96888889,18.6035556 L15.4044444,24.0391111 L12.6302222,26.8137778 L8.99333333,23.1768889 L2.59555556,29.5751111 C0.214666667,31.9555556 0.214666667,35.8302222 2.59511111,38.2111111 C3.74844444,39.3644444 5.28222222,40 6.91377778,40 C8.54488889,40 10.0786667,39.3644444 11.2315556,38.2111111 L17.6297778,31.8133333 L13.9933333,28.1768889 L16.7675556,25.4022222 L29.5764444,38.2111111 C30.7297778,39.3644444 32.2635556,40 33.8946667,40 C35.5257778,40 37.0595556,39.3644444 38.2124444,38.2111111 C40.5933333,35.8306667 40.5933333,31.956 38.2124444,29.5751111 L25.4035556,16.7657778 Z M35.5497778,3.83155556 L36.9751111,5.25688889 L33.0586667,10.6653333 L30.1413333,7.748 L35.5497778,3.83155556 Z M14.9031111,31.8133333 L9.868,36.848 C9.07911111,37.6373333 8.02977778,38.072 6.91333333,38.072 C5.79688889,38.072 4.74755556,37.6368889 3.95866667,36.848 L3.95822222,36.848 C2.32888889,35.2186667 2.32888889,32.5675556 3.95822222,30.9382222 L8.99333333,25.9031111 L14.9031111,31.8133333 Z M36.8493333,36.848 C36.0604444,37.6373333 35.0106667,38.072 33.8946667,38.072 C32.7786667,38.072 31.7288889,37.6368889 30.9395556,36.848 L10.6795556,16.5875556 L10.2137778,16.644 C7.93644444,16.9182222 5.70844444,16.1537778 4.09644444,14.5417778 C2.33955556,12.7848889 1.60755556,10.3128889 2.06177778,7.93911111 L5.612,11.4893333 L9.61155556,9.86 L11.5084444,5.62711111 L7.94133333,2.06 C10.3142222,1.60622222 12.7866667,2.33777778 14.5435556,4.09466667 L14.544,4.09466667 C16.1555556,5.70622222 16.9217778,7.936 16.6457778,10.2115556 L16.5893333,10.6768889 L36.8497778,30.9377778 C38.4786667,32.5675556 38.4786667,35.2186667 36.8493333,36.848 Z" id="Shape"></path>
        </g>
    </g>
</svg>