<?xml version="1.0" encoding="UTF-8"?>
<svg width="60px" height="60px" viewBox="0 0 60 60" version="1.1" xmlns="http://www.w3.org/2000/svg" xmlns:xlink="http://www.w3.org/1999/xlink">
    <!-- Generator: sketchtool 48.2 (47327) - http://www.bohemiancoding.com/sketch -->
    <title>9837402C-BC31-4F23-8271-E87414A3E929</title>
    <desc>Created with sketchtool.</desc>
    <defs></defs>
    <g id="Home" stroke="none" stroke-width="1" fill="none" fill-rule="evenodd" transform="translate(-984.000000, -192.000000)">
        <g id="Group-3" transform="translate(171.000000, 150.000000)" fill="#AF0000" fill-rule="nonzero">
            <g id="Tool-Services" transform="translate(813.000000, 42.000000)">
                <path d="M9.18,44.5219565 C6.23413043,44.5219565 3.83804348,46.9186957 3.83804348,49.8645652 C3.83804348,52.8104348 6.23478261,55.2071739 9.18,55.2071739 C12.1258696,55.2071739 14.5226087,52.8097826 14.5226087,49.8645652 C14.5226087,46.9186957 12.1258696,44.5219565 9.18,44.5219565 Z M9.18,53.703913 C7.06304348,53.703913 5.34130435,51.9815217 5.34130435,49.8645652 C5.34130435,47.7469565 7.06369565,46.0252174 9.18,46.0252174 C11.2969565,46.0252174 13.0193478,47.7469565 13.0193478,49.8645652 C13.0193478,51.9821739 11.2969565,53.703913 9.18,53.703913 Z" id="Shape"></path>
                <path d="M57.2615217,45.8719565 L39.9652174,28.5756522 L46.23,21.6547826 C46.8280435,21.7545652 47.426087,21.8067391 48.0202174,21.8067391 C50.8447826,21.8067391 53.5767391,20.696087 55.62,18.6521739 C58.6852174,15.5863043 59.6145652,11.0093478 57.9873913,6.99130435 C57.9691304,6.94434783 57.9456522,6.89934783 57.9169565,6.85630435 C57.8608696,6.77152174 57.7891304,6.70043478 57.7069565,6.64630435 C57.6886957,6.63391304 57.6684783,6.62543478 57.6495652,6.615 C57.626087,6.60195652 57.6032609,6.58826087 57.5784783,6.57782609 C57.5569565,6.56869565 57.5341304,6.56347826 57.5113043,6.55630435 C57.4878261,6.54913043 57.4643478,6.54 57.4395652,6.53543478 C57.4186957,6.53152174 57.3984783,6.53086957 57.3776087,6.52826087 C57.3495652,6.525 57.3221739,6.52043478 57.2941304,6.51978261 C57.2726087,6.51978261 57.2517391,6.52369565 57.2295652,6.52565217 C57.2034783,6.5276087 57.176087,6.52826087 57.1486957,6.53282609 C57.0534783,6.55108696 56.9595652,6.58826087 56.8747826,6.64434783 C56.8317391,6.67304348 56.7919565,6.705 56.7573913,6.74086957 L49.256087,14.2415217 L44.801087,9.78521739 L52.3017391,2.28521739 C52.3376087,2.25 52.3695652,2.21086957 52.3976087,2.16782609 C52.4543478,2.08304348 52.4915217,1.98978261 52.5091304,1.8926087 C52.5136957,1.87043478 52.5136957,1.84826087 52.5156522,1.82608696 C52.5182609,1.8 52.5228261,1.77391304 52.5228261,1.74847826 C52.5228261,1.72304348 52.5182609,1.69891304 52.5156522,1.67413043 C52.5130435,1.65065217 52.5123913,1.62717391 52.5078261,1.60304348 C52.5019565,1.58086957 52.4941304,1.55934783 52.4876087,1.53782609 C52.4804348,1.51304348 52.4745652,1.48826087 52.4647826,1.46413043 C52.455,1.44065217 52.4413043,1.41913043 52.428913,1.39695652 C52.4184783,1.37673913 52.41,1.35521739 52.3963043,1.33630435 C52.3421739,1.25478261 52.2717391,1.1823913 52.1863043,1.12630435 C52.1445652,1.09826087 52.0982609,1.07413043 52.0526087,1.05586957 C48.033913,-0.572608696 43.4563043,0.35673913 40.391087,3.4226087 C37.9154348,5.8976087 36.8106522,9.38021739 37.3871739,12.8152174 L26.643913,22.5397826 L12.3071739,8.20304348 L10.4980435,3.50282609 C10.4276087,3.32086957 10.29,3.17282609 10.1126087,3.09065217 L4.55347826,0.511956522 C4.26717391,0.379565217 3.92869565,0.439565217 3.70565217,0.662608696 L0.583695652,3.78456522 C0.36,4.0076087 0.3,4.34608696 0.433695652,4.6323913 L3.01173913,10.1915217 C3.09326087,10.3682609 3.24130435,10.5065217 3.42326087,10.5769565 L8.12282609,12.3854348 L22.2515217,26.5141304 L3.16043478,43.7902174 C3.15521739,43.7954348 3.15195652,43.8013043 3.14673913,43.8058696 C3.14282609,43.8091304 3.13826087,43.8117391 3.13369565,43.8156522 C-0.199565217,47.1495652 -0.199565217,52.5736957 3.13369565,55.9076087 C4.80065217,57.573913 6.99,58.4080435 9.17934783,58.4080435 C11.3686957,58.4080435 13.5580435,57.573913 15.225,55.9076087 C15.2295652,55.9030435 15.2321739,55.8978261 15.2367391,55.893913 C15.2413043,55.8886957 15.2471739,55.8854348 15.2517391,55.8802174 L29.0667391,40.6154348 L45.791087,57.3397826 C47.3223913,58.8723913 49.3584783,59.715 51.5243478,59.715 C53.6902174,59.715 55.7282609,58.8717391 57.2595652,57.3391304 C58.7915217,55.8071739 59.636087,53.771087 59.636087,51.6045652 C59.636087,49.44 58.7934783,47.4032609 57.2615217,45.8719565 Z M38.7084783,13.6486957 C38.7156522,13.6421739 38.7202174,13.635 38.7267391,13.6284783 C38.7423913,13.6128261 38.7567391,13.5958696 38.771087,13.578913 C38.7893478,13.5580435 38.8069565,13.5371739 38.8226087,13.5143478 C38.8343478,13.4980435 38.8428261,13.481087 38.8526087,13.4641304 C38.8669565,13.4393478 38.8813043,13.413913 38.8930435,13.3878261 C38.9008696,13.3695652 38.9067391,13.3506522 38.9132609,13.331087 C38.9217391,13.305 38.9302174,13.278913 38.9367391,13.2515217 C38.9406522,13.2306522 38.943913,13.2091304 38.9465217,13.1869565 C38.9497826,13.1602174 38.9536957,13.1341304 38.9536957,13.1067391 C38.9543478,13.0858696 38.9523913,13.0643478 38.951087,13.0428261 C38.9491304,13.0147826 38.9471739,12.9867391 38.9419565,12.9586957 C38.94,12.9515217 38.9406522,12.9443478 38.9393478,12.9365217 C38.2969565,9.86282609 39.2373913,6.70369565 41.4547826,4.48630435 C43.815,2.12608696 47.2154348,1.23913043 50.381087,2.08043478 L43.2065217,9.25434783 C42.9143478,9.54782609 42.9143478,10.023913 43.2065217,10.3173913 L48.7252174,15.836087 C48.866087,15.9769565 49.0578261,16.0565217 49.2567391,16.0565217 C49.4556522,16.0565217 49.6473913,15.9769565 49.7876087,15.836087 L56.9621739,8.66217391 C57.8041304,11.8284783 56.9165217,15.228913 54.5569565,17.5891304 C52.3382609,19.8065217 49.1791304,20.7476087 46.1067391,20.1045652 C46.0982609,20.1026087 46.091087,20.103913 46.0832609,20.1019565 C46.0578261,20.0980435 46.0323913,20.096087 46.0069565,20.0941304 C45.9828261,20.0921739 45.9573913,20.0902174 45.9326087,20.0908696 C45.911087,20.0915217 45.8902174,20.0947826 45.8686957,20.0967391 C45.8406522,20.1 45.813913,20.1026087 45.7878261,20.1084783 C45.7682609,20.1130435 45.7486957,20.1202174 45.7297826,20.126087 C45.7023913,20.1345652 45.6763043,20.1423913 45.6502174,20.1541304 C45.6332609,20.1619565 45.615,20.1717391 45.5980435,20.1815217 C45.5726087,20.1952174 45.5465217,20.2095652 45.5230435,20.2258696 C45.5093478,20.2363043 45.495,20.2480435 45.4813043,20.2591304 C45.4558696,20.2793478 45.4317391,20.3008696 45.408913,20.325 C45.405,20.328913 45.3997826,20.3321739 45.3965217,20.336087 L38.9015217,27.5106522 L37.691087,26.3008696 C37.5502174,26.16 37.3584783,26.0804348 37.1595652,26.0804348 C36.9606522,26.0804348 36.768913,26.16 36.6286957,26.3008696 L33.5171739,29.4123913 L27.7102174,23.6054348 L38.7084783,13.6486957 Z M9.0723913,11.2108696 C9.07043478,11.208913 9.06782609,11.2076087 9.06521739,11.205 C9.05152174,11.1919565 9.03586957,11.1815217 9.02086957,11.1691304 C8.99673913,11.1482609 8.9726087,11.1273913 8.94717391,11.1104348 C8.94326087,11.1084783 8.93869565,11.1065217 8.93478261,11.103913 C8.895,11.0797826 8.85391304,11.058913 8.81217391,11.0426087 C8.81217391,11.0419565 8.81152174,11.0419565 8.81086957,11.0413043 L4.2476087,9.285 L2.01847826,4.47717391 L4.3976087,2.09869565 L9.20413043,4.32782609 L10.9591304,8.88717391 C10.9917391,8.9726087 11.0419565,9.05282609 11.1071739,9.12456522 C11.1123913,9.13043478 11.1169565,9.1376087 11.1228261,9.14413043 C11.1247826,9.14673913 11.1267391,9.14934783 11.1293478,9.1526087 L32.4528261,30.4747826 L30.3952174,32.5323913 L9.0723913,11.2108696 Z M14.1573913,54.8517391 C11.4097826,57.5941304 6.94304348,57.5921739 4.19804348,54.8471739 C1.45304348,52.1015217 1.45108696,47.636087 4.19152174,44.8878261 L23.3165217,27.5804348 L29.3328261,33.5954348 L26.2213043,36.7076087 C25.9271739,37.001087 25.9271739,37.4778261 26.2213043,37.7706522 L28.0023913,39.5523913 L14.1573913,54.8517391 Z M56.1965217,56.2780435 C54.9482609,57.5263043 53.2891304,58.2136957 51.5243478,58.2136957 C49.7602174,58.2136957 48.101087,57.5263043 46.8541304,56.2786957 L29.5454348,38.9706522 C29.5447826,38.9693478 29.5447826,38.9693478 29.5447826,38.9693478 C29.5447826,38.9693478 29.5447826,38.9693478 29.5441304,38.9686957 L27.8152174,37.2397826 L37.1595652,27.8954348 L56.1984783,46.935 C57.446087,48.1826087 58.1321739,49.8417391 58.1321739,51.6065217 C58.1321739,53.3713043 57.4441304,55.0304348 56.1965217,56.2780435 Z" id="Shape"></path>
                <path d="M34.3193478,36.4571739 C34.0258696,36.1643478 33.5491304,36.1643478 33.2563043,36.4571739 C32.9628261,36.7506522 32.9628261,37.2273913 33.2563043,37.5208696 L49.7602174,54.026087 C49.9076087,54.1734783 50.1,54.2458696 50.2923913,54.2458696 C50.4847826,54.2458696 50.6771739,54.1734783 50.823913,54.026087 C51.1167391,53.7326087 51.1167391,53.2558696 50.823913,52.9623913 L34.3193478,36.4571739 Z" id="Shape"></path>
                <path d="M37.44,33.3365217 C37.1465217,33.0430435 36.6704348,33.0430435 36.3769565,33.3365217 C36.0834783,33.63 36.0834783,34.106087 36.3769565,34.3995652 L52.8828261,50.9054348 C53.0302174,51.0528261 53.2226087,51.1258696 53.4143478,51.1258696 C53.606087,51.1258696 53.7991304,51.0528261 53.9452174,50.9054348 C54.2386957,50.6119565 54.2386957,50.1358696 53.9452174,49.8423913 L37.44,33.3365217 Z" id="Shape"></path>
            </g>
        </g>
    </g>
</svg>